<svg width="112" height="56" viewBox="0 0 112 56" fill="none" xmlns="http://www.w3.org/2000/svg">
<path d="M13.6629 26.2703L8 56H20.1348L27.4157 16H15.2809L9.07865 26.2703H13.6629Z" fill="#61B617"/>
<path d="M34.1573 26.2703L28.4944 56H40.6292L47.9101 16H35.7753L29.573 26.2703H34.1573Z" fill="#61B617"/>
<path d="M62.2023 30.0541H50.0674L45.2135 56H57.3483L62.2023 30.0541Z" fill="#61B617"/>
<path d="M64.8988 16H52.764L50.6067 26.8108H62.7415L64.8988 16Z" fill="#E78F07"/>
<path d="M77.3033 30.3243H65.4382C63.05 43.5592 73.2209 55.7297 86.6696 55.7297H94.0224L99.146 46H90.2909C82.0056 46 75.7628 38.4652 77.3033 30.3243Z" fill="#61B617"/>
<path d="M104 16H80.7679C74.0709 16 68.1676 20.395 66.2472 26.8108H97.5281L104 16Z" fill="#E78F07"/>
</svg>
