<svg width="84" height="42" viewBox="0 0 84 42" fill="none" xmlns="http://www.w3.org/2000/svg">
<mask id="mask0_12_6938" style="mask-type:luminance" maskUnits="userSpaceOnUse" x="1" y="13" width="82" height="16">
<path d="M82.0339 13.4399H1.95947V28.8016H82.0339V13.4399Z" fill="white"/>
</mask>
<g mask="url(#mask0_12_6938)">
<path fill-rule="evenodd" clip-rule="evenodd" d="M33.5565 25.4566C30.5974 27.6404 26.3073 28.8017 22.6129 28.8017C17.4355 28.8017 12.7729 26.8878 9.24452 23.7019C8.9678 23.4515 9.21458 23.1099 9.54755 23.3036C13.3541 25.5187 18.0619 26.8529 22.9236 26.8529C26.2034 26.8529 29.809 26.172 33.1264 24.7648C33.6268 24.5529 34.0464 25.0946 33.5565 25.4566Z" fill="#F79C34"/>
<path fill-rule="evenodd" clip-rule="evenodd" d="M34.7879 24.0499C34.4091 23.5654 32.2861 23.8204 31.3321 23.9347C31.0431 23.9696 30.9982 23.7169 31.2586 23.5341C32.9525 22.3442 35.7283 22.6876 36.0508 23.0864C36.3756 23.4879 35.9651 26.2709 34.3782 27.5988C34.1337 27.8029 33.9015 27.694 34.0099 27.4246C34.3674 26.5322 35.1667 24.5353 34.7879 24.0499Z" fill="#F79C34"/>
<path fill-rule="evenodd" clip-rule="evenodd" d="M31.3993 15.1291V13.9732C31.4002 13.7972 31.5327 13.6802 31.6924 13.6806L36.8739 13.6802C37.0394 13.6802 37.1728 13.8004 37.1728 13.9719V14.9631C37.171 15.1296 37.0308 15.3464 36.7827 15.6907L34.0985 19.5231C35.0947 19.4999 36.1485 19.6492 37.054 20.1577C37.2581 20.2725 37.313 20.4426 37.3289 20.6091V21.8425C37.3289 22.0127 37.1429 22.2091 36.9469 22.107C35.3523 21.2714 33.2361 21.1802 31.4724 22.117C31.2923 22.2132 31.104 22.019 31.104 21.8489V20.6762C31.104 20.4889 31.1076 20.1677 31.2968 19.8819L34.4061 15.4208L31.6987 15.4203C31.5331 15.4203 31.4002 15.3024 31.3993 15.1291Z" fill="#5B6B77"/>
<path fill-rule="evenodd" clip-rule="evenodd" d="M12.4987 22.35H10.9223C10.7721 22.3405 10.6524 22.228 10.6401 22.0837L10.6415 13.9931C10.6415 13.8316 10.7776 13.7023 10.9459 13.7023L12.4139 13.7018C12.5672 13.7095 12.6906 13.8257 12.7001 13.9735V15.0296H12.7301C13.1125 14.008 13.8333 13.5312 14.8046 13.5312C15.7903 13.5312 16.4086 14.008 16.85 15.0296C17.2324 14.008 18.1007 13.5312 19.0275 13.5312C19.6898 13.5312 20.4107 13.8039 20.852 14.4168C21.3524 15.0981 21.2499 16.0852 21.2499 16.9535L21.2481 22.0592C21.2481 22.2203 21.1124 22.35 20.9441 22.35H19.37C19.2112 22.34 19.0869 22.2148 19.0869 22.0597L19.0865 17.7705C19.0865 17.4303 19.116 16.5793 19.042 16.2558C18.9245 15.7105 18.5716 15.5572 18.1157 15.5572C17.7328 15.5572 17.3354 15.8126 17.1735 16.2209C17.0115 16.6301 17.0265 17.3105 17.0265 17.7705V22.0592C17.0265 22.2203 16.8904 22.35 16.7226 22.35H15.148C14.9896 22.34 14.8649 22.2148 14.8649 22.0597L14.8631 17.7705C14.8631 16.8682 15.0105 15.5409 13.8923 15.5409C12.7591 15.5409 12.8036 16.8342 12.8036 17.7705L12.8026 22.0592C12.8026 22.2203 12.6666 22.35 12.4987 22.35Z" fill="#5B6B77"/>
<path fill-rule="evenodd" clip-rule="evenodd" d="M41.6475 15.183C40.4853 15.183 40.4118 16.7657 40.4118 17.7533C40.4118 18.7409 40.3973 20.8521 41.6335 20.8521C42.8547 20.8521 42.9137 19.1496 42.9137 18.1112C42.9137 17.4303 42.8837 16.6128 42.6778 15.9659C42.5013 15.4039 42.1479 15.183 41.6475 15.183ZM41.6335 13.5312C43.9729 13.5312 45.2381 15.5409 45.2381 18.0944C45.2381 20.5622 43.8404 22.5206 41.6335 22.5206C39.3376 22.5206 38.0869 20.5114 38.0869 18.0091C38.0869 15.4892 39.3521 13.5312 41.6335 13.5312Z" fill="#5B6B77"/>
<path fill-rule="evenodd" clip-rule="evenodd" d="M48.2728 22.35H46.7018C46.5444 22.34 46.4192 22.2148 46.4192 22.0597L46.4165 13.9663C46.4301 13.818 46.5608 13.7023 46.7195 13.7023L48.1816 13.7018C48.3195 13.7091 48.4329 13.8025 48.462 13.9282V15.1657H48.4915C48.9333 14.0588 49.5507 13.5312 50.6394 13.5312C51.3458 13.5312 52.0376 13.7866 52.479 14.4848C52.8909 15.1317 52.8909 16.2209 52.8909 17.0043V22.0955C52.8736 22.2389 52.7448 22.35 52.5887 22.35H51.0087C50.8626 22.341 50.7451 22.2334 50.7279 22.0955V17.7029C50.7279 16.8174 50.8313 15.5232 49.7421 15.5232C49.3597 15.5232 49.0063 15.7786 48.8299 16.1701C48.6089 16.6641 48.5795 17.1577 48.5795 17.7029V22.0592C48.5767 22.2203 48.4407 22.35 48.2728 22.35Z" fill="#5B6B77"/>
<path fill-rule="evenodd" clip-rule="evenodd" d="M28.8575 22.33C28.7536 22.4235 28.6034 22.4298 28.4855 22.3667C27.962 21.9317 27.8681 21.7307 27.5818 21.3161C26.7167 22.1975 26.1039 22.462 24.9829 22.462C23.656 22.462 22.6235 21.6427 22.6235 20.0051C22.6235 18.7254 23.3172 17.8553 24.3047 17.4289C25.1598 17.0533 26.3543 16.9852 27.2688 16.8827V16.6781C27.2688 16.302 27.2983 15.8593 27.0769 15.5349C26.885 15.2446 26.5167 15.1253 26.1923 15.1253C25.5908 15.1253 25.0569 15.4333 24.9253 16.0716C24.8976 16.2136 24.7942 16.3546 24.6518 16.3619L23.1234 16.1963C22.9946 16.1668 22.8513 16.0634 22.888 15.8665C23.235 14.0388 24.8672 13.469 26.3506 13.4536H26.4677C27.2271 13.4631 28.197 13.6714 28.7876 14.238C29.5547 14.9547 29.4803 15.9101 29.4803 16.9512V19.4067C29.4803 20.1457 29.7874 20.4696 30.0755 20.8675C30.1767 21.0113 30.1989 21.1814 30.0705 21.2866C29.7484 21.5565 29.1764 22.0533 28.862 22.3336L28.8575 22.33ZM27.2688 18.4868C27.2688 19.101 27.2833 19.6127 26.974 20.1589C26.7231 20.6021 26.3248 20.8752 25.8825 20.8752C25.2782 20.8752 24.9244 20.4147 24.9244 19.732C24.9244 18.3892 26.1284 18.1452 27.2688 18.1452V18.4868Z" fill="#5B6B77"/>
<path fill-rule="evenodd" clip-rule="evenodd" d="M8.19386 22.33C8.08952 22.4235 7.93891 22.4298 7.82142 22.3667C7.29746 21.9317 7.20356 21.7307 6.91777 21.3161C6.05222 22.1975 5.43981 22.462 4.31886 22.462C2.99196 22.462 1.95947 21.6427 1.95947 20.0051C1.95947 18.7254 2.65218 17.8553 3.64067 17.4289C4.49578 17.0533 5.69022 16.9852 6.6043 16.8827V16.6781C6.6043 16.302 6.63424 15.8593 6.41287 15.5349C6.22097 15.2446 5.85216 15.1253 5.52827 15.1253C4.92674 15.1253 4.39189 15.4333 4.26125 16.0716C4.23403 16.2136 4.13014 16.3546 3.98725 16.3619L2.45938 16.1963C2.3301 16.1668 2.18675 16.0634 2.22395 15.8665C2.57007 14.0388 4.20273 13.469 5.68659 13.4536H5.80363C6.56302 13.4631 7.5329 13.6714 8.12354 14.238C8.8902 14.9547 8.81625 15.9101 8.81625 16.9512V19.4067C8.81625 20.1457 9.12337 20.4696 9.41143 20.8675C9.51169 21.0113 9.53482 21.1814 9.40644 21.2866C9.08436 21.5565 8.51186 22.0533 8.19749 22.3336L8.19386 22.33ZM6.6043 18.4868C6.6043 19.101 6.61927 19.6127 6.30943 20.1589C6.05902 20.6021 5.66073 20.8752 5.21797 20.8752C4.61373 20.8752 4.25989 20.4147 4.25989 19.732C4.25989 18.3892 5.4643 18.1452 6.6043 18.1452V18.4868Z" fill="#5B6B77"/>
<path fill-rule="evenodd" clip-rule="evenodd" d="M74.439 25.2523C74.439 25.0472 74.439 24.863 74.439 24.658C74.439 24.4888 74.522 24.3722 74.6985 24.3826C75.0278 24.4294 75.4937 24.4761 75.8244 24.408C76.2563 24.3182 76.5661 24.012 76.7494 23.5924C77.0075 23.0018 77.1785 22.5254 77.2865 22.2129L74.0071 14.0891C73.9518 13.9512 73.9354 13.6953 74.2108 13.6953H75.3571C75.5758 13.6953 75.6647 13.8341 75.7137 13.9702L78.0912 20.5689L80.3608 13.9702C80.4071 13.835 80.5001 13.6953 80.7169 13.6953H81.7979C82.0715 13.6953 82.0561 13.9507 82.0016 14.0891L78.7486 22.4665C78.3276 23.5815 77.7669 25.3575 76.5039 25.666C75.8707 25.8316 75.0718 25.7717 74.6027 25.5753C74.4843 25.5158 74.439 25.3571 74.439 25.2523Z" fill="#5B6B77"/>
<path fill-rule="evenodd" clip-rule="evenodd" d="M72.9098 21.855C72.9098 22.006 72.786 22.1299 72.634 22.1299H71.8256C71.651 22.1299 71.5317 22.0038 71.5094 21.855L71.4282 21.3047C71.0567 21.6191 70.6008 21.8954 70.1063 22.0877C69.1555 22.457 68.0595 22.5182 67.1305 21.9475C66.4586 21.5352 66.1021 20.729 66.1021 19.8975C66.1021 19.2543 66.3003 18.6164 66.7399 18.1533C67.3264 17.5204 68.1765 17.2097 69.2031 17.2097C69.8233 17.2097 70.7106 17.2827 71.3561 17.4937V16.3863C71.3561 15.2604 70.8821 14.7732 69.6323 14.7732C68.6769 14.7732 67.9461 14.9174 66.929 15.2336C66.7662 15.2391 66.6709 15.1152 66.6709 14.9642V14.3327C66.6709 14.1812 66.8002 14.0347 66.9404 13.9902C67.6667 13.6736 68.6955 13.4762 69.7892 13.4399C71.215 13.4399 72.9098 13.7616 72.9098 15.9545V21.855ZM71.3561 20.2382V18.5674C70.8136 18.4191 69.9158 18.3574 69.5683 18.3574C69.0194 18.3574 68.4183 18.4871 68.1044 18.8251C67.8699 19.0728 67.7637 19.4285 67.7637 19.7723C67.7637 20.2169 67.9175 20.6628 68.2768 20.8833C68.6942 21.1668 69.3415 21.1323 69.9498 20.9595C70.5346 20.7935 71.0835 20.5 71.3561 20.2382Z" fill="#5B6B77"/>
<path fill-rule="evenodd" clip-rule="evenodd" d="M60.9904 14.798C62.7841 14.798 63.2726 16.2084 63.2726 17.8234C63.2826 18.9121 63.0826 19.8829 62.5187 20.4386C62.0968 20.8546 61.6255 20.968 60.916 20.968C60.2845 20.968 59.4539 20.6387 58.8333 20.18V15.5624C59.4793 15.0661 60.3036 14.798 60.9904 14.798ZM58.5584 25.5421H57.4756C57.324 25.5421 57.2002 25.4182 57.2002 25.2672C57.2002 21.5065 57.2002 17.7453 57.2002 13.9847C57.2002 13.8336 57.324 13.7098 57.4756 13.7098H58.3044C58.4786 13.7098 58.5979 13.8359 58.6201 13.9847L58.7072 14.5758C59.4834 13.8867 60.4827 13.4448 61.4349 13.4448C64.1019 13.4448 64.9788 15.6423 64.9788 17.9272C64.9788 20.3719 63.6374 22.3362 61.3687 22.3362C60.4133 22.3362 59.5201 21.9837 58.8333 21.3713V25.2672C58.8333 25.4182 58.7095 25.5421 58.5584 25.5421Z" fill="#5B6B77"/>
</g>
</svg>
