<svg width="56" height="42" viewBox="0 0 56 42" fill="none" xmlns="http://www.w3.org/2000/svg">
<path fill-rule="evenodd" clip-rule="evenodd" d="M43.9383 8.68018H12.0617C10.6578 8.68018 9.52002 9.81797 9.52002 11.2219V30.7754C9.52002 32.1793 10.6578 33.3171 12.0617 33.3171H43.9383C45.3422 33.3171 46.48 32.1793 46.48 30.7754V11.2219C46.48 9.81797 45.3422 8.68018 43.9383 8.68018ZM22.7239 15.1767C23.3387 15.1767 23.8158 15.3052 24.1737 15.5621C24.5224 15.819 24.6967 16.2136 24.7059 16.7366C24.7059 16.9935 24.6508 17.2504 24.5315 17.4798C24.4306 17.6909 24.2563 17.8652 24.0452 17.9661V18.0028C24.2838 18.1129 24.4857 18.2873 24.6325 18.5167C24.7242 18.6543 24.7885 18.8011 24.8343 18.9571C24.8894 19.1406 24.9169 19.3425 24.9077 19.5352C24.9169 19.8288 24.8527 20.1133 24.7334 20.3702C24.6233 20.6088 24.449 20.8106 24.2471 20.9666C24.036 21.1318 23.7975 21.2511 23.5406 21.3245C23.2745 21.407 22.99 21.4438 22.7147 21.4438H19.3564V15.1583H22.7239V15.1767ZM20.9713 17.489H22.4486C22.6322 17.5073 22.8065 17.4523 22.9441 17.333C23.0359 17.2321 23.0909 17.0944 23.0818 16.9568C23.0818 16.8283 23.0359 16.6999 22.9441 16.5989C22.8065 16.4797 22.623 16.4246 22.4486 16.443H20.9713V17.489ZM20.9713 20.1867H22.467C22.6964 20.205 22.9258 20.1408 23.1001 19.994C23.2286 19.8563 23.2928 19.682 23.2836 19.4893C23.302 19.2783 23.2194 19.0764 23.0634 18.9388C22.8891 18.8103 22.678 18.7461 22.467 18.7552H20.9713V20.1867ZM26.4401 21.4621H24.7334L26.9539 15.1859H28.6056L30.8812 21.4621H29.0827L28.7799 20.3702H26.7521L26.4401 21.4621ZM27.7706 16.8283H27.7339L27.0824 19.159H28.4129L27.7706 16.8283ZM32.7347 17.7459H32.7714L35.0745 21.4621H36.6986V15.1767H35.0837V18.6818H35.047L32.909 15.1767H31.1197V21.4621H32.7347V17.7459ZM38.9467 15.1767V17.3789L41.0112 15.1767H43.14L40.6075 17.5716L43.2868 21.4621H41.259L39.4055 18.6727L38.9375 19.1223V21.4621H37.3226V15.1767H38.9467ZM15.7687 23.4808V22.4256H12.4012V23.4808H13.5023V27.1786H14.6676V23.4808H15.7687ZM18.5673 22.4256C18.7325 22.4256 18.9068 22.4623 19.0536 22.5265C19.2004 22.5907 19.3381 22.6917 19.439 22.8201C19.5491 22.9486 19.6317 23.0954 19.6867 23.2606C19.751 23.4349 19.7785 23.6184 19.7785 23.8019C19.7877 24.0772 19.7143 24.3433 19.5766 24.5819C19.439 24.8021 19.2463 24.9672 19.0169 25.0774L19.7129 26.7729L21.1732 22.4256H22.3661L23.9993 27.1786H22.7056L22.4853 26.3528H21.0264L20.8062 27.1786H19.8794H19.5766H18.6407L17.925 25.2425H16.9891V27.1786H15.8237V22.4256H18.5673ZM23.9993 27.1786V22.4256H25.284L26.8255 25.0774H26.853V22.4256H28.0183V27.1786H26.8438L25.1922 24.3708H25.1647V27.1786H23.9993ZM18.2186 24.2515C18.3287 24.2607 18.4388 24.2148 18.5031 24.1231C18.5673 24.0405 18.5948 23.9396 18.5948 23.8386C18.5948 23.7927 18.5856 23.7377 18.5765 23.6918C18.5673 23.6459 18.5398 23.6001 18.5122 23.5542C18.4847 23.5175 18.4388 23.4808 18.3929 23.4532C18.3379 23.4257 18.2828 23.4074 18.2186 23.4165H16.9982V24.2515H18.2186ZM21.7513 23.6735H21.7696L22.2376 25.4352H21.2833L21.7513 23.6735ZM29.2479 27.197C29.4956 27.2704 29.7526 27.3071 30.0095 27.2979C30.2572 27.3071 30.5141 27.2704 30.7711 27.1878C30.9913 27.1327 31.2023 27.0318 31.3858 26.9033C31.5602 26.784 31.6978 26.6189 31.7987 26.4354C31.8997 26.2243 31.9547 26.0041 31.9456 25.7747C31.9547 25.5453 31.9089 25.3067 31.8171 25.0957C31.7345 24.9305 31.6152 24.7837 31.4684 24.6644C31.3124 24.5452 31.1381 24.4534 30.9546 24.3892C30.762 24.325 30.5419 24.2608 30.3218 24.1966L30.3214 24.1965C30.1838 24.1598 30.0554 24.1231 29.9177 24.068C29.826 24.0405 29.7434 23.9946 29.67 23.9396C29.6149 23.9029 29.569 23.8478 29.5415 23.7927C29.514 23.7377 29.5048 23.6826 29.5048 23.6184C29.514 23.5175 29.5599 23.4257 29.6424 23.3615C29.9269 23.1963 30.2756 23.2055 30.5508 23.389C30.6793 23.5175 30.7711 23.6826 30.8078 23.8662L31.8079 23.4257C31.7437 23.2514 31.6703 23.0954 31.5694 22.9394C31.4776 22.8018 31.3583 22.6825 31.2207 22.5907C31.0739 22.4898 30.9087 22.4164 30.7344 22.3705C30.5233 22.3154 30.2939 22.2971 30.0737 22.2971C29.826 22.2971 29.5782 22.3246 29.3396 22.3889C29.1286 22.4439 28.9359 22.5357 28.7616 22.6641C28.5964 22.7834 28.4679 22.9394 28.3762 23.1137C28.2844 23.2973 28.2386 23.5083 28.2386 23.7193C28.2386 23.912 28.2753 24.1047 28.3487 24.2882C28.4221 24.4534 28.5322 24.6002 28.6698 24.7195C28.835 24.8571 29.0093 24.9672 29.202 25.0498C29.4406 25.1508 29.6883 25.2425 29.9452 25.3159L29.9453 25.3159L29.9453 25.3159C30.0646 25.3526 30.1838 25.3893 30.3031 25.4444C30.3857 25.4811 30.4591 25.527 30.5233 25.582C30.5692 25.6187 30.6059 25.6738 30.6334 25.738C30.6518 25.8022 30.661 25.8665 30.661 25.9307C30.661 25.9949 30.6426 26.0683 30.6059 26.1234C30.5692 26.1784 30.5325 26.2243 30.4774 26.2519C30.4224 26.2886 30.3673 26.3069 30.3031 26.3161L30.303 26.3161C30.2388 26.3253 30.1746 26.3344 30.1104 26.3344C29.8902 26.3436 29.67 26.2702 29.4956 26.1234C29.3305 25.9582 29.2387 25.738 29.2295 25.4994L28.1193 25.9491C28.1651 26.1326 28.2386 26.3161 28.3303 26.4904C28.4221 26.6648 28.5505 26.8024 28.6973 26.9217C28.8625 27.041 29.046 27.1327 29.2479 27.197ZM33.1935 24.1873H35.0011V25.2425H33.1935V27.1786H32.0281V22.4256H35.5516V23.4808H33.1935V24.1873ZM39.1669 22.4256H35.6434V27.1878H39.2311V26.1326H36.8087V25.1783H38.8733V24.1231H36.8087V23.4808H39.1669V22.4256ZM42.0573 22.4256C42.2224 22.4256 42.3968 22.4623 42.5436 22.5265C42.6904 22.5907 42.828 22.6917 42.929 22.8201C43.0391 22.9486 43.1216 23.0954 43.1767 23.2606C43.2409 23.4349 43.2685 23.6184 43.2685 23.8019C43.2776 24.0772 43.2042 24.3433 43.0666 24.5819C42.929 24.8021 42.7363 24.9672 42.5069 25.0774L43.3694 27.1786H42.1307L41.415 25.2425H40.479V27.1786H39.3137V22.4256H42.0573ZM41.7086 24.2515C41.8187 24.2607 41.9288 24.2148 41.993 24.1231C42.0573 24.0405 42.0848 23.9396 42.0848 23.8386C42.0848 23.7927 42.0756 23.7377 42.0664 23.6918C42.0573 23.6459 42.0297 23.6001 42.0022 23.5542C41.9747 23.5175 41.9288 23.4808 41.8829 23.4532C41.8279 23.4257 41.7728 23.4074 41.7086 23.4165H40.4882V24.2515H41.7086ZM12.3736 15.1767H18.7325V16.4521H12.3736V15.1767ZM18.7325 17.5716H12.3736V18.847H18.7325V17.5716ZM12.3736 20.1958H18.7325V21.4713H12.3736V20.1958Z" fill="white"/>
</svg>
