<svg width="100" height="42" viewBox="0 0 100 42" fill="none" xmlns="http://www.w3.org/2000/svg">
<path d="M80.8145 12.3199L84.2051 19.0624L77.0776 25.8042L80.8145 12.3199Z" fill="#008C44"/>
<path d="M78.4377 12.3199L81.8253 19.0624L74.6948 25.8042L78.4377 12.3199Z" fill="#F47920"/>
<path d="M30.1976 22.1027C29.9372 22.6508 29.4111 23.0479 28.7832 23.1276H28.3186H19.2081L19.9787 20.3702H27.0082H29.1765H29.6457C29.998 20.4575 30.2743 20.7361 30.3548 21.0891C30.3654 21.1689 30.3723 21.2486 30.3723 21.3313C30.3723 21.3731 30.37 21.4148 30.3662 21.4558C30.3654 21.4733 30.3654 21.49 30.3639 21.5075L30.1976 22.1027ZM21.4834 14.976H28.5061H30.7056H31.1687C31.4344 15.0413 31.6568 15.2144 31.7859 15.4459C31.833 15.6084 31.8596 15.7792 31.8596 15.9554C31.8596 16.051 31.8504 16.1429 31.836 16.2348L31.811 16.3228L31.7176 16.6599C31.4686 17.2468 30.9189 17.6742 30.2614 17.7539H29.815H20.7083L21.4834 14.976ZM31.5718 25.3605C31.9044 25.1046 32.1238 24.788 32.2293 24.4107L33.3567 20.3702C33.46 20.0027 33.4144 19.6945 33.2223 19.4455C33.0303 19.1964 32.7463 19.0719 32.3713 19.0719C32.7463 19.0719 33.1009 18.9444 33.4349 18.6885C33.7667 18.4327 33.9853 18.1214 34.0878 17.7539L35.2138 13.7187C35.3238 13.3262 35.2866 13.0028 35.1037 12.7454C34.9207 12.4888 34.6345 12.3597 34.245 12.3597H19.5391L15.8022 25.7446H30.5089C30.884 25.7446 31.2385 25.6163 31.5718 25.3605Z" fill="white"/>
<path d="M50.6199 12.3716L49.1417 17.7476H38.5325L40.0114 12.3716H37.3739L33.7031 25.7109H36.3414L37.815 20.3585H48.4227L46.9506 25.7109H49.5889L53.2589 12.3716H50.6199Z" fill="white"/>
<path d="M54.0263 25.7534H51.3706L55.0634 12.4171H57.7184L54.0263 25.7534Z" fill="white"/>
<path d="M76.1851 12.4052L65.1666 21.7435L61.3235 15.3562L59.547 12.4052H59.4991L58.6625 15.4359L55.8291 25.7028H58.4674L60.4535 18.5062L64.6618 25.7202L71.6283 19.3353L69.8813 25.7028H72.5204L75.0948 16.3698L76.1896 12.4052H76.1851Z" fill="white"/>
<path d="M15.6059 28.1927H15.7357C15.8974 28.1927 16.0173 28.1714 16.0948 28.1297C16.1715 28.0879 16.2223 28.0181 16.2459 27.9194C16.2717 27.8108 16.258 27.7349 16.2071 27.6916C16.1555 27.6476 16.0432 27.6263 15.8716 27.6263H15.7417L15.6059 28.1927ZM15.3978 29.0642H15.5147C15.6332 29.0642 15.7228 29.0605 15.7843 29.0513C15.845 29.0422 15.8959 29.027 15.9361 29.0035C15.9839 28.9777 16.0249 28.942 16.0583 28.8987C16.0917 28.8547 16.1145 28.8069 16.1274 28.753C16.1419 28.69 16.1411 28.6353 16.1252 28.5882C16.1084 28.5419 16.0781 28.5055 16.0325 28.4797C16.0037 28.4637 15.9695 28.4531 15.93 28.4455C15.8898 28.4387 15.8367 28.4349 15.7676 28.4349H15.6651H15.5482L15.3978 29.0642ZM15 29.333L15.4722 27.3591H15.9999C16.1494 27.3591 16.2588 27.3667 16.3271 27.3826C16.3954 27.397 16.4501 27.4228 16.4926 27.4578C16.5465 27.5026 16.583 27.5618 16.6012 27.6347C16.6194 27.7068 16.6179 27.788 16.5974 27.8753C16.5708 27.9809 16.5253 28.0689 16.4569 28.1395C16.3878 28.2094 16.302 28.2587 16.1973 28.2868C16.315 28.3043 16.3985 28.3574 16.4471 28.444C16.4964 28.5305 16.5055 28.6398 16.4736 28.772C16.4546 28.8517 16.4212 28.9283 16.3749 28.999C16.3279 29.0718 16.2717 29.1326 16.2049 29.1834C16.135 29.2381 16.0553 29.2768 15.965 29.2996C15.8746 29.3216 15.7296 29.333 15.5299 29.333H15Z" fill="white"/>
<path d="M17.5684 29.333L18.0406 27.3591H18.38L18.2061 28.0871H19.2333L19.4079 27.3591H19.7481L19.2758 29.333H18.9357L19.1657 28.3741H18.137L17.9077 29.333H17.5684Z" fill="white"/>
<path d="M21.2643 28.5579H21.8474L21.7411 28.1076C21.735 28.0788 21.7305 28.0461 21.7259 28.0082C21.7221 27.9717 21.7183 27.93 21.716 27.8837C21.6933 27.9269 21.6728 27.9679 21.6507 28.0044C21.6287 28.0416 21.6075 28.0765 21.587 28.1076L21.2643 28.5579ZM22.0182 29.333L21.9036 28.8251H21.0753L20.7108 29.333H20.354L21.8572 27.2816L22.3773 29.333H22.0182Z" fill="white"/>
<path d="M24.0679 28.2003H24.1294C24.3094 28.2003 24.4331 28.1813 24.5022 28.1418C24.5705 28.1016 24.6168 28.031 24.6411 27.9315C24.6669 27.8222 24.6533 27.7455 24.6009 27.7015C24.5485 27.6567 24.4361 27.6347 24.2653 27.6347H24.2038L24.0679 28.2003ZM23.9874 28.45L23.7756 29.333H23.4575L23.9297 27.3598H24.4035C24.5424 27.3598 24.6487 27.3682 24.7208 27.3849C24.7937 27.4016 24.8522 27.4304 24.897 27.4699C24.9501 27.5177 24.9858 27.58 25.0025 27.6544C25.02 27.7303 25.0177 27.8123 24.9964 27.9027C24.9585 28.0606 24.8879 28.1843 24.7854 28.2747C24.6836 28.3635 24.5515 28.4174 24.3891 28.4356L24.8939 29.333H24.5098L24.0254 28.45H23.9874Z" fill="white"/>
<path d="M26.6041 28.5579H27.1872L27.0809 28.1076C27.0749 28.0788 27.0695 28.0461 27.0657 28.0082C27.0619 27.9717 27.0581 27.93 27.0559 27.8837C27.0331 27.9269 27.0118 27.9679 26.9906 28.0044C26.9678 28.0416 26.9465 28.0765 26.9268 28.1076L26.6041 28.5579ZM27.358 29.333L27.2434 28.8251H26.4151L26.0507 29.333H25.6938L27.1971 27.2816L27.7164 29.333H27.358Z" fill="white"/>
<path d="M29.7196 27.6316L29.3119 29.333H28.9725L29.3795 27.6316H28.8237L28.889 27.3598H30.3368L30.2723 27.6316H29.7196Z" fill="white"/>
<path d="M32.7783 29.333L33.2505 27.3591H33.5899L33.1177 29.333H32.7783Z" fill="white"/>
<path d="M34.4897 29.3335L34.9802 27.2821L36.0196 28.4885C36.0476 28.5226 36.0757 28.5583 36.1031 28.597C36.1312 28.6358 36.1593 28.6798 36.1889 28.7276L36.5161 27.3595H36.8304L36.3399 29.4102L35.2793 28.1818C35.2505 28.1483 35.2247 28.1142 35.1996 28.077C35.1738 28.0398 35.151 28.0011 35.1305 27.9608L34.8018 29.3335H34.4897Z" fill="white"/>
<path d="M38.8033 27.6316L38.3964 29.333H38.057L38.4639 27.6316H37.9082L37.9735 27.3598H39.4206L39.3568 27.6316H38.8033Z" fill="white"/>
<path d="M40.0918 29.333L40.564 27.3591H41.7302L41.6649 27.6316H40.8381L40.7197 28.1266H41.5464L41.4789 28.4083H40.6521L40.4995 29.046H41.3263L41.2579 29.333H40.0918Z" fill="white"/>
<path d="M43.1412 28.2003H43.2027C43.3826 28.2003 43.5063 28.1813 43.5754 28.1418C43.6438 28.1016 43.6901 28.031 43.7144 27.9315C43.7402 27.8222 43.7265 27.7455 43.6741 27.7015C43.6217 27.6567 43.5094 27.6347 43.3386 27.6347H43.2771L43.1412 28.2003ZM43.0607 28.45L42.8489 29.333H42.5308L43.003 27.3598H43.4767C43.6157 27.3598 43.722 27.3682 43.7941 27.3849C43.867 27.4016 43.9254 27.4304 43.9702 27.4699C44.0234 27.5177 44.0591 27.58 44.0758 27.6544C44.0932 27.7303 44.0909 27.8123 44.0697 27.9027C44.0317 28.0606 43.9611 28.1843 43.8586 28.2747C43.7569 28.3635 43.6248 28.4174 43.4623 28.4356L43.9672 29.333H43.583L43.0987 28.45H43.0607Z" fill="white"/>
<path d="M45.0513 29.333L45.5235 27.3591H46.6896L46.6244 27.6316H45.7976L45.6807 28.1236H46.5074L46.4399 28.4053H45.6131L45.3906 29.333H45.0513Z" fill="white"/>
<path d="M47.9916 28.5579H48.5739L48.4676 28.1076C48.4616 28.0788 48.457 28.0461 48.4525 28.0082C48.4487 27.9717 48.4449 27.93 48.4426 27.8837C48.4206 27.9269 48.3993 27.9679 48.3773 28.0044C48.3553 28.0416 48.334 28.0765 48.3135 28.1076L47.9916 28.5579ZM48.7455 29.333L48.6301 28.8251H47.8018L47.4382 29.333H47.0806L48.5838 27.2816L49.1039 29.333H48.7455Z" fill="white"/>
<path d="M52.1671 27.8392C52.0889 27.7618 52.0016 27.7041 51.9037 27.6654C51.8058 27.6274 51.6987 27.6069 51.581 27.6069C51.3525 27.6069 51.149 27.6768 50.9729 27.8157C50.7968 27.9531 50.6821 28.133 50.6297 28.3532C50.5781 28.5658 50.6062 28.7412 50.7125 28.8801C50.8188 29.019 50.9782 29.0881 51.1908 29.0881C51.3138 29.0881 51.4368 29.0669 51.5583 29.0251C51.6797 28.9841 51.8027 28.9219 51.9257 28.8376L51.8384 29.2013C51.7321 29.2628 51.6213 29.3098 51.5066 29.3402C51.392 29.3706 51.2713 29.3857 51.146 29.3857C50.9858 29.3857 50.8446 29.3607 50.7208 29.3113C50.5971 29.262 50.4954 29.1891 50.4149 29.0927C50.3359 28.9985 50.2851 28.8877 50.26 28.7594C50.2365 28.6318 50.2418 28.4944 50.2759 28.3502C50.3109 28.2052 50.3709 28.07 50.4559 27.9425C50.5409 27.8157 50.6472 27.7033 50.774 27.6069C50.9008 27.5105 51.0374 27.4376 51.1832 27.3867C51.329 27.3374 51.4808 27.3123 51.6372 27.3123C51.7594 27.3123 51.8726 27.329 51.9758 27.3632C52.0791 27.3966 52.1747 27.4475 52.2636 27.5158L52.1671 27.8392Z" fill="white"/>
<path d="M53.1143 29.333L53.5865 27.3591H54.7526L54.6873 27.6316H53.8606L53.7429 28.1266H54.5697L54.5021 28.4083H53.6753L53.5227 29.046H54.3495L54.2804 29.333H53.1143Z" fill="white"/>
<path d="M57.3188 29.333L57.7911 27.3591H58.9572L58.8919 27.6316H58.0652L57.9475 28.1236H58.7743L58.7067 28.4053H57.8799L57.6582 29.333H57.3188Z" fill="white"/>
<path d="M61.76 28.3502C61.7843 28.2507 61.7873 28.1558 61.7706 28.0662C61.7531 27.9766 61.7175 27.8962 61.662 27.8263C61.6081 27.7572 61.5391 27.7033 61.4555 27.6669C61.3713 27.6297 61.2779 27.6099 61.1746 27.6099C61.0729 27.6099 60.9704 27.6289 60.8687 27.6661C60.7669 27.7026 60.6713 27.7557 60.5824 27.8263C60.4936 27.8947 60.4192 27.9751 60.3592 28.0647C60.3 28.1543 60.2583 28.25 60.234 28.3502C60.2104 28.4504 60.2066 28.5445 60.2241 28.6334C60.2408 28.7222 60.2765 28.8019 60.3319 28.8718C60.3873 28.9416 60.4572 28.9963 60.5407 29.0319C60.6242 29.0692 60.7176 29.0881 60.8216 29.0881C60.9233 29.0881 61.0243 29.0692 61.1253 29.0319C61.2263 28.9963 61.3212 28.9416 61.4115 28.8718C61.5003 28.8019 61.5755 28.7222 61.6347 28.6326C61.6947 28.5438 61.7372 28.4496 61.76 28.3502ZM62.1145 28.3502C62.0811 28.4906 62.0219 28.6227 61.9354 28.748C61.8503 28.8725 61.7425 28.9841 61.6127 29.0821C61.4814 29.1808 61.3417 29.2552 61.1944 29.3075C61.0471 29.3592 60.8983 29.3857 60.7502 29.3857C60.5999 29.3857 60.4625 29.3592 60.3387 29.3068C60.215 29.2536 60.1117 29.1792 60.0305 29.0821C59.947 28.9841 59.8931 28.8733 59.8673 28.7495C59.8422 28.625 59.846 28.4922 59.8802 28.3502C59.9136 28.209 59.9728 28.0769 60.0586 27.9516C60.1436 27.8263 60.2514 27.7147 60.382 27.6153C60.5111 27.5173 60.65 27.4437 60.7973 27.3921C60.9453 27.3404 61.0942 27.3154 61.2452 27.3154C61.3963 27.3154 61.5322 27.3404 61.6552 27.3921C61.7774 27.4437 61.8799 27.5173 61.9635 27.6153C62.0462 27.7155 62.1001 27.8286 62.1259 27.9539C62.1517 28.0791 62.1479 28.2105 62.1145 28.3502Z" fill="white"/>
<path d="M63.763 28.2003H63.8245C64.0037 28.2003 64.1282 28.1813 64.1965 28.1418C64.2649 28.1016 64.3119 28.031 64.3355 27.9315C64.3613 27.8222 64.3484 27.7455 64.2952 27.7015C64.2428 27.6567 64.1305 27.6347 63.9597 27.6347H63.8982L63.763 28.2003ZM63.6818 28.45L63.47 29.333H63.1519L63.6241 27.3598H64.0978C64.2368 27.3598 64.3431 27.3682 64.4152 27.3849C64.4881 27.4016 64.5465 27.4304 64.5921 27.4699C64.6445 27.5177 64.6801 27.58 64.6968 27.6544C64.7143 27.7303 64.712 27.8123 64.6908 27.9027C64.6528 28.0606 64.5822 28.1843 64.4805 28.2747C64.3787 28.3635 64.2459 28.4174 64.0834 28.4356L64.5883 29.333H64.2041L63.7197 28.45H63.6818Z" fill="white"/>
<path d="M69.3755 28.3585C69.3755 28.3434 69.3793 28.3016 69.3877 28.2318C69.393 28.1748 69.3983 28.127 69.4013 28.089C69.3823 28.1338 69.3596 28.1794 69.333 28.2234C69.3064 28.269 69.2761 28.3145 69.2404 28.3616L68.4424 29.4131L68.1524 28.3403C68.1395 28.2955 68.1304 28.253 68.1243 28.212C68.1175 28.1703 68.1122 28.1293 68.1091 28.089C68.0985 28.13 68.0849 28.1741 68.0674 28.2188C68.0507 28.2644 68.0302 28.3115 68.0059 28.3616L67.5496 29.3334H67.2368L68.2223 27.2759L68.5411 28.5218C68.5457 28.5415 68.5525 28.5742 68.5616 28.6205C68.5692 28.666 68.5799 28.7222 68.5912 28.7898C68.6254 28.7336 68.6732 28.6615 68.737 28.5742C68.7545 28.5514 68.7666 28.5332 68.7757 28.5203L69.6762 27.2759L69.6891 29.3334H69.374L69.3755 28.3585Z" fill="white"/>
<path d="M72.8678 28.3502C72.8913 28.2507 72.8951 28.1558 72.8784 28.0662C72.861 27.9766 72.8245 27.8962 72.7691 27.8263C72.7152 27.7572 72.6461 27.7033 72.5626 27.6669C72.4783 27.6297 72.3849 27.6099 72.2824 27.6099C72.1799 27.6099 72.0774 27.6289 71.9757 27.6661C71.874 27.7026 71.7783 27.7557 71.6895 27.8263C71.6007 27.8947 71.5263 27.9751 71.467 28.0647C71.4071 28.1543 71.3653 28.25 71.341 28.3502C71.3175 28.4504 71.3137 28.5445 71.3311 28.6334C71.3478 28.7222 71.3835 28.8019 71.4397 28.8718C71.4944 28.9416 71.5642 28.9963 71.6485 29.0319C71.7312 29.0692 71.8254 29.0881 71.9294 29.0881C72.0304 29.0881 72.1313 29.0692 72.2323 29.0319C72.3333 28.9963 72.4282 28.9416 72.5185 28.8718C72.6074 28.8019 72.6825 28.7222 72.7425 28.6326C72.8025 28.5438 72.8442 28.4496 72.8678 28.3502ZM73.2216 28.3502C73.1882 28.4906 73.129 28.6227 73.0424 28.748C72.9574 28.8725 72.8503 28.9841 72.7197 29.0821C72.5892 29.1808 72.4495 29.2552 72.3014 29.3075C72.1541 29.3592 72.0061 29.3857 71.8573 29.3857C71.7069 29.3857 71.5695 29.3592 71.4458 29.3068C71.322 29.2536 71.2188 29.1792 71.1383 29.0821C71.054 28.9841 71.0001 28.8733 70.9751 28.7495C70.9493 28.625 70.9538 28.4922 70.9872 28.3502C71.0206 28.209 71.0806 28.0769 71.1656 27.9516C71.2507 27.8263 71.3585 27.7147 71.4891 27.6153C71.6181 27.5173 71.7578 27.4437 71.9051 27.3921C72.0524 27.3404 72.202 27.3154 72.353 27.3154C72.5041 27.3154 72.64 27.3404 72.7623 27.3921C72.8845 27.4437 72.9877 27.5173 73.0713 27.6153C73.1532 27.7155 73.2072 27.8286 73.233 27.9539C73.2595 28.0791 73.255 28.2105 73.2216 28.3502Z" fill="white"/>
<path d="M74.2593 29.3335L74.7497 27.2821L75.7898 28.4885C75.8172 28.5226 75.8453 28.5583 75.8734 28.597C75.9007 28.6358 75.9295 28.6798 75.9584 28.7276L76.2864 27.3595H76.5999L76.1102 29.4102L75.0489 28.1818C75.02 28.1483 74.9942 28.1142 74.9691 28.077C74.9433 28.0398 74.9213 28.0011 74.9001 27.9608L74.5713 29.3335H74.2593Z" fill="white"/>
<path d="M77.4912 29.333L77.9634 27.3591H79.1296L79.0643 27.6316H78.2375L78.1191 28.1266H78.9459L78.8783 28.4083H78.0515L77.8989 29.046H78.7257L78.6574 29.333H77.4912Z" fill="white"/>
<path d="M80.3795 29.333L80.5959 28.4295L80.1479 27.3591H80.5048L80.7826 28.0287C80.7887 28.0469 80.7971 28.0689 80.8062 28.0963C80.8145 28.1243 80.8236 28.1547 80.8328 28.1866C80.8525 28.1555 80.8738 28.1259 80.8958 28.0978C80.917 28.0704 80.9383 28.0454 80.9603 28.0203L81.5684 27.3591H81.9086L80.933 28.4295L80.7158 29.333H80.3795Z" fill="white"/>
</svg>
