<svg width="96" height="42" viewBox="0 0 96 42" fill="none" xmlns="http://www.w3.org/2000/svg">
<path d="M76.7609 19.4595V23.4213H75.501V13.6382H78.8361C79.6851 13.6382 80.406 13.9212 80.9989 14.4871C81.5986 15.0531 81.9018 15.7403 81.9018 16.5489C81.9018 17.3776 81.5986 18.0716 80.9989 18.6241C80.4128 19.1833 79.6986 19.4595 78.8361 19.4595H76.7609ZM76.7609 14.8442V18.2602H78.8631C79.3617 18.2602 79.7794 18.0918 80.1096 17.7549C80.4464 17.418 80.6149 17.0138 80.6149 16.5489C80.6149 16.0907 80.4464 15.6999 80.1096 15.363C79.7794 15.0194 79.3684 14.8442 78.8631 14.8442H76.7609Z" fill="#F9FBFF"/>
<path d="M85.1898 16.5083C86.1196 16.5083 86.854 16.7576 87.393 17.2562C87.932 17.7548 88.2015 18.4353 88.2015 19.2977V23.4279H86.9955V22.4981H86.9416C86.4228 23.2662 85.7288 23.6435 84.8664 23.6435C84.1252 23.6435 83.5121 23.4279 83.0135 22.99C82.5149 22.552 82.2656 22.0063 82.2656 21.3527C82.2656 20.6587 82.5284 20.1062 83.0539 19.702C83.5795 19.291 84.2802 19.0888 85.1494 19.0888C85.8972 19.0888 86.5104 19.2236 86.9955 19.4998V19.2101C86.9955 18.7722 86.8203 18.4016 86.4767 18.0984C86.1331 17.7952 85.7221 17.6402 85.2572 17.6402C84.5564 17.6402 83.9972 17.9367 83.593 18.5296L82.488 17.8356C83.0944 16.9463 83.9972 16.5083 85.1898 16.5083ZM83.566 21.3729C83.566 21.7031 83.7075 21.9726 83.9837 22.1949C84.26 22.4105 84.5901 22.5251 84.9607 22.5251C85.4862 22.5251 85.9579 22.3297 86.3756 21.9389C86.7933 21.5481 86.9955 21.0899 86.9955 20.5576C86.6047 20.2477 86.0589 20.0927 85.3582 20.0927C84.8462 20.0927 84.4217 20.214 84.0781 20.4633C83.7344 20.7059 83.566 21.0091 83.566 21.3729Z" fill="#F9FBFF"/>
<path d="M95.0409 16.7305L90.8433 26.3788H89.543L91.0994 23.0033L88.3369 16.7305H89.7047L91.699 21.5412H91.726L93.6664 16.7305H95.0409Z" fill="#F9FBFF"/>
<path d="M33.034 19.136V17.6201H38.1007C38.1546 17.8896 38.1816 18.2062 38.1816 18.5499C38.1816 19.6818 37.8716 21.09 36.8745 22.0871C35.9042 23.0978 34.6578 23.6435 33.0138 23.6435C29.9616 23.6435 27.3945 21.1573 27.3945 18.1052C27.3945 15.053 29.9549 12.5601 33.007 12.5601C34.6982 12.5601 35.8975 13.2204 36.8003 14.0895L35.7358 15.1541C35.089 14.5477 34.2063 14.076 33.007 14.076C30.7768 14.076 29.0385 15.875 29.0385 18.1052C29.0385 20.3353 30.7768 22.1276 33.007 22.1276C34.4556 22.1276 35.2776 21.5481 35.8032 21.0226C36.2344 20.5914 36.5174 19.9782 36.6252 19.136H33.034Z" fill="#F9FBFF"/>
<path d="M45.8966 20.0725C45.8966 22.1275 44.2863 23.6368 42.3189 23.6368C40.3515 23.6368 38.7412 22.1208 38.7412 20.0725C38.7412 18.0041 40.3515 16.5083 42.3189 16.5083C44.2931 16.5083 45.8966 18.0108 45.8966 20.0725ZM44.3335 20.0725C44.3335 18.7856 43.4037 17.9097 42.3189 17.9097C41.2409 17.9097 40.3044 18.7856 40.3044 20.0725C40.3044 21.3392 41.2342 22.2353 42.3189 22.2353C43.4037 22.2353 44.3335 21.346 44.3335 20.0725Z" fill="#F9FBFF"/>
<path d="M53.7052 20.0725C53.7052 22.1275 52.0949 23.6368 50.1275 23.6368C48.1601 23.6368 46.5498 22.1275 46.5498 20.0725C46.5498 18.0041 48.1601 16.5083 50.1275 16.5083C52.1017 16.5083 53.7052 18.0108 53.7052 20.0725ZM52.1421 20.0725C52.1421 18.7856 51.2123 17.9097 50.1275 17.9097C49.0495 17.9097 48.1129 18.7856 48.1129 20.0725C48.1129 21.3392 49.0427 22.2353 50.1275 22.2353C51.2055 22.2353 52.1421 21.346 52.1421 20.0725Z" fill="#F9FBFF"/>
<path d="M61.1914 16.7233V23.1241C61.1914 25.7586 59.635 26.8366 57.8023 26.8366C56.0707 26.8366 55.0331 25.6777 54.6424 24.7277L56.0034 24.1617C56.2459 24.7412 56.8388 25.4284 57.8023 25.4284C58.9747 25.4284 59.7091 24.7007 59.7091 23.333V22.8209H59.6552C59.3048 23.2521 58.6311 23.6294 57.7754 23.6294C55.9899 23.6294 54.3594 22.073 54.3594 20.0787C54.3594 18.0641 55.9966 16.501 57.7754 16.501C58.6243 16.501 59.3048 16.8783 59.6552 17.296H59.7091V16.7166L61.1914 16.7233ZM59.8169 20.0854C59.8169 18.8322 58.9814 17.9092 57.9101 17.9092C56.8321 17.9092 55.9225 18.8255 55.9225 20.0854C55.9225 21.3252 56.8254 22.2347 57.9101 22.2347C58.9747 22.2347 59.8169 21.3319 59.8169 20.0854Z" fill="#F9FBFF"/>
<path d="M63.8458 12.9775V23.4277H62.2759V12.9775H63.8458Z" fill="#F9FBFF"/>
<path d="M69.8954 21.2512L71.1082 22.0598C70.7174 22.6392 69.7742 23.6431 68.1369 23.6431C66.1089 23.6431 64.5996 22.0732 64.5996 20.0789C64.5996 17.9565 66.1291 16.5146 67.9617 16.5146C69.8146 16.5146 70.7174 17.9902 71.0139 18.7852L71.1756 19.1895L66.4053 21.1637C66.7691 21.8778 67.3351 22.2417 68.1369 22.2417C68.9387 22.2349 69.4912 21.8442 69.8954 21.2512ZM66.156 19.9643L69.3429 18.637C69.1678 18.1923 68.6422 17.8824 68.0224 17.8824C67.2206 17.8891 66.1156 18.5899 66.156 19.9643Z" fill="#F9FBFF"/>
<path d="M11.0283 19.7897L15.738 11.6304L18.305 13.1127C19.9625 14.0694 20.5285 16.185 19.5717 17.8425L16.9171 22.4376C16.3174 23.4752 14.9968 23.8256 13.9592 23.2327L11.5808 21.8582C10.8599 21.4337 10.6106 20.5106 11.0283 19.7897Z" fill="url(#paint0_linear_12_6954)"/>
<path d="M10.5299 14.1228L4.6748 24.2698L7.24186 25.7521C8.89933 26.7088 11.015 26.1429 11.9717 24.4854L15.7718 17.9027C16.3714 16.8651 16.0143 15.5445 14.9767 14.9448L12.5916 13.5703C11.8707 13.1526 10.9476 13.4019 10.5299 14.1228Z" fill="#FDBD00"/>
<path d="M15.7376 11.6304L13.9252 10.5793C11.8567 9.38671 9.20878 10.0942 8.00947 12.1626L4.64063 17.9975C4.04097 19.0351 4.39807 20.3557 5.43567 20.9553L7.24811 22.0064C8.28571 22.606 9.6063 22.249 10.206 21.2113L14.2284 14.2446C15.0638 12.796 16.91 12.3041 18.3586 13.1396" fill="#2DA94F"/>
<path d="M8.53533 13.8736L6.53423 12.7215C5.63812 12.2094 4.49945 12.5126 3.98739 13.402L1.5753 17.5524C0.389464 19.5939 1.09692 22.2081 3.14518 23.394L4.66789 24.2699L6.52076 25.3344L7.32254 25.7993C5.90089 24.8426 5.44947 22.9358 6.31863 21.4333L6.93849 20.362L9.21583 16.4272C9.73463 15.5244 9.4247 14.3857 8.53533 13.8736Z" fill="url(#paint1_linear_12_6954)"/>
<defs>
<linearGradient id="paint0_linear_12_6954" x1="12.2089" y1="16.4823" x2="19.1983" y2="19.0263" gradientUnits="userSpaceOnUse">
<stop offset="0.2" stop-color="#D93025"/>
<stop offset="0.6" stop-color="#EA4335"/>
</linearGradient>
<linearGradient id="paint1_linear_12_6954" x1="1.59795" y1="17.3052" x2="9.38418" y2="20.1391" gradientUnits="userSpaceOnUse">
<stop offset="0.2" stop-color="#4285F4"/>
<stop offset="0.8" stop-color="#1B74E8"/>
</linearGradient>
</defs>
</svg>
