<svg width="84" height="42" viewBox="0 0 84 42" fill="none" xmlns="http://www.w3.org/2000/svg">
<path d="M77.3444 15.52C76.4132 14.882 75.0037 14.5602 73.1562 14.5602H68.3178L66.5191 24.3254H60.1806L60.588 22.1099H64.4062L64.8586 19.6215L61.0426 19.627L61.4511 17.4214H65.384L65.9073 14.5608H57.9204L56.2128 23.8237H53.2818L55.001 14.5603H50.8259L49.1183 23.8232H46.2631L47.9838 14.5603H43.811L42.01 24.3255H35.626L36.0296 22.11H39.8631L40.3161 19.6357L36.4862 19.6319L36.8925 17.4219H40.8696L41.3895 14.5601H16.5009L15.0843 22.2983L12.2632 14.5601H7.93147L5.6001 27.1888H9.73691L11.148 19.2372L13.8856 27.1888H28.7116L30.5142 17.4207H32.8329L31.0304 27.1888H70.0405L71.1715 21.0228L73.0011 27.1888H77.1401L75.2441 22.1504L75.6779 22.057C76.6333 21.8522 77.3784 21.4124 77.8972 20.753C78.4156 20.0875 78.6797 19.2332 78.6797 18.2069C78.6797 17.0121 78.2426 16.1331 77.3432 15.5193L77.3444 15.52ZM25.1117 24.3254H18.7793L19.1884 22.1099H23.1603L23.6105 19.6144H19.6769L20.0557 17.422H26.3789L25.1105 24.3254L25.1117 24.3254ZM73.934 20.0717C73.5178 20.3627 72.9144 20.5043 72.0891 20.5043H71.271L71.8986 17.1154H72.5004C73.1856 17.1154 73.6853 17.2252 74.0301 17.4492C74.2991 17.6249 74.6192 17.9725 74.6192 18.6297C74.6183 19.4248 74.2459 19.8519 73.9329 20.0716L73.934 20.0717Z" fill="#83BA3B"/>
</svg>
