<svg width="84" height="42" viewBox="0 0 84 42" fill="none" xmlns="http://www.w3.org/2000/svg">
<path d="M46.1025 17.9408C45.7463 16.9172 44.7758 16.1822 43.6358 16.1822H43.612C42.8709 16.1822 42.203 16.4923 41.7276 16.99C41.2514 16.4923 40.5835 16.1822 39.8433 16.1822H39.8194C39.168 16.1822 38.5725 16.422 38.1152 16.8189V16.6171C38.0996 16.4162 37.9351 16.2583 37.7319 16.2583H35.9833C35.7694 16.2583 35.5967 16.4319 35.5967 16.6477V26.1929C35.5967 26.4087 35.7694 26.5824 35.9833 26.5824H37.7319C37.9268 26.5824 38.0872 26.436 38.1127 26.2467L38.1119 19.3943C38.1119 19.3703 38.1127 19.348 38.1152 19.3257C38.1431 19.0198 38.366 18.7684 38.7181 18.737H38.7831H38.9665H39.0405C39.1877 18.7502 39.3119 18.8023 39.4098 18.8809C39.562 19.0024 39.6467 19.1892 39.6467 19.3943L39.6533 26.2128C39.6533 26.4286 39.8268 26.603 40.0398 26.603H41.7885C41.9949 26.603 42.1627 26.4377 42.1726 26.2318L42.1718 19.3852C42.1709 19.1603 42.2746 18.9569 42.4563 18.8362C42.546 18.7783 42.6537 18.7395 42.7779 18.7279H42.8429H43.0263H43.1004C43.4787 18.761 43.7074 19.0495 43.7065 19.3852L43.7131 26.1946C43.7131 26.4104 43.8867 26.584 44.0997 26.584H45.8483C46.0614 26.584 46.2349 26.4104 46.2349 26.1946V18.8709C46.2349 18.3716 46.179 18.1591 46.1025 17.9408Z" fill="#54C1F0"/>
<path d="M34.2645 16.2829H33.2644V14.6541C33.2644 14.6525 33.2644 14.6508 33.2644 14.6492C33.2644 14.4532 33.1065 14.2945 32.9115 14.2945C32.8885 14.2945 32.8663 14.2978 32.8449 14.3019C31.7362 14.6078 31.9583 16.1515 29.9341 16.2829H29.8888H29.7375C29.7079 16.2829 29.6799 16.287 29.6528 16.2928C29.4801 16.3317 29.3501 16.4863 29.3501 16.6715V18.4292C29.3501 18.6434 29.5236 18.8178 29.7375 18.8178H30.7928L30.7911 26.2713C30.7911 26.4838 30.9622 26.6558 31.1736 26.6558H32.9025C33.113 26.6558 33.2841 26.4838 33.2841 26.2713L33.2849 18.8178H34.2645C34.4776 18.8178 34.6511 18.6434 34.6511 18.4292V16.6715C34.6511 16.4574 34.4776 16.2829 34.2645 16.2829Z" fill="#54C1F0"/>
<path d="M27.9731 16.2829H26.2245C26.0115 16.2829 25.8387 16.4574 25.8387 16.6715V20.306C25.8346 20.5309 25.6537 20.7112 25.4291 20.7112H24.6971C24.4701 20.7112 24.2867 20.5276 24.2867 20.2994L24.2801 16.6715C24.2801 16.4574 24.1065 16.2829 23.8935 16.2829H22.1449C21.931 16.2829 21.7583 16.4574 21.7583 16.6715V20.6549C21.7583 22.168 22.8317 23.2469 24.3377 23.2469C24.3377 23.2469 25.4678 23.2469 25.5023 23.2535C25.7063 23.2767 25.8651 23.4486 25.8651 23.6603C25.8651 23.8695 25.7096 24.0406 25.5081 24.0663C25.4982 24.0679 25.4892 24.0704 25.4785 24.072L22.9213 24.0811C22.7075 24.0811 22.5347 24.2556 22.5347 24.4697V26.2266C22.5347 26.4416 22.7075 26.6152 22.9213 26.6152H25.7803C27.2872 26.6152 28.3597 25.5371 28.3597 24.0233V16.6715C28.3597 16.4574 28.187 16.2829 27.9731 16.2829Z" fill="#3E549E"/>
<path d="M11.0475 19.5036V20.3237V20.5883C11.0475 20.8157 10.8641 21.0009 10.6379 21.0009L9.52837 21.0017V18.8281H10.6379C10.8641 18.8281 11.0475 19.0116 11.0475 19.2398V19.5036ZM11.2013 16.2824H7.37917C7.16944 16.2824 7 16.4536 7 16.6636V18.3858C7 18.3891 7.00082 18.3924 7.00082 18.3957C7.00082 18.404 7 18.4122 7 18.4197V23.9434V26.2146C7 26.4262 7.15792 26.599 7.35368 26.604H7.38658H9.13521C9.34824 26.604 9.52179 26.4304 9.52179 26.2154L9.52837 23.5441H11.2013C12.6012 23.5441 13.5767 22.5676 13.5767 21.1547V18.6751C13.5767 17.2622 12.6012 16.2824 11.2013 16.2824Z" fill="#3E549E"/>
<path d="M18.3028 23.6306V23.9051C18.3028 23.9275 18.2995 23.949 18.2962 23.9696C18.2921 23.9895 18.2863 24.0085 18.2797 24.0267C18.2254 24.1805 18.0725 24.2921 17.8907 24.2921H17.1628C16.9358 24.2921 16.7507 24.1184 16.7507 23.9051V23.5736C16.7507 23.5695 16.7499 23.5653 16.7499 23.5612L16.7507 22.679V22.6774V22.5798V22.4029L16.7515 22.4004C16.7523 22.1879 16.9358 22.0159 17.1628 22.0159H17.8907C18.1185 22.0159 18.3028 22.1887 18.3028 22.4029V23.6306ZM18.0248 16.2929H15.5984C15.3837 16.2929 15.2102 16.4566 15.2102 16.6575V17.3413C15.2102 17.3454 15.211 17.3504 15.211 17.3545C15.211 17.3595 15.2102 17.3644 15.2102 17.3694V18.3061C15.2102 18.5186 15.3944 18.6923 15.6214 18.6923H17.9318C18.1144 18.7212 18.2592 18.8551 18.2797 19.0643V19.2908C18.2592 19.4901 18.116 19.6356 17.9417 19.6522H16.7976C15.276 19.6522 14.1919 20.6683 14.1919 22.0953V24.087V24.1391C14.1919 25.5579 15.1238 26.5674 16.6347 26.5674H19.8055C20.3746 26.5674 20.8361 26.1341 20.8361 25.6009V18.9312C20.8361 17.314 20.007 16.2929 18.0248 16.2929Z" fill="#3E549E"/>
<path d="M49.3936 11.448C49.3936 10.4045 50.2395 9.55859 51.283 9.55859H71.8566C74.5813 9.55859 76.79 11.7674 76.79 14.4921V27.508C76.79 30.2327 74.5813 32.4415 71.8566 32.4415H51.283C50.2395 32.4415 49.3936 31.5956 49.3936 30.5521V11.448Z" fill="#4F5352"/>
<path d="M49.3936 11.448C49.3936 10.4045 50.2395 9.55859 51.283 9.55859H71.1218C73.8465 9.55859 76.0553 11.7674 76.0553 14.4921V27.508C76.0553 30.2327 73.8465 32.4415 71.1218 32.4415H51.283C50.2395 32.4415 49.3936 31.5956 49.3936 30.5521V11.448Z" fill="#54C1F0"/>
<path fill-rule="evenodd" clip-rule="evenodd" d="M51.5611 31.9007L51.629 31.3803C51.6873 31.3879 51.747 31.3919 51.8079 31.3919H52.0674V31.9167H51.8079C51.7242 31.9167 51.6419 31.9113 51.5611 31.9007ZM51.0846 31.7733L51.2857 31.2885C51.175 31.2427 51.0715 31.1825 50.9774 31.1102L50.6576 31.5264C50.7876 31.6263 50.931 31.7096 51.0846 31.7733ZM50.3088 31.1775L50.725 30.8577C50.6527 30.7637 50.5925 30.6602 50.5466 30.5495L50.0618 30.7505C50.1255 30.9042 50.2089 31.0475 50.3088 31.1775ZM49.9344 30.2741L50.4549 30.2062C50.4472 30.1479 50.4433 30.0882 50.4433 30.0273V29.7618H49.9185V30.0273C49.9185 30.1109 49.9239 30.1933 49.9344 30.2741ZM49.9185 29.2308H50.4433V28.6998H49.9185V29.2308ZM49.9185 28.1688H50.4433V27.6377H49.9185V28.1688ZM49.9185 27.1067H50.4433V26.5757H49.9185V27.1067ZM49.9185 26.0447H50.4433V25.5137H49.9185V26.0447ZM49.9185 24.9827H50.4433V24.4517H49.9185V24.9827ZM49.9185 23.9207H50.4433V23.3897H49.9185V23.9207ZM49.9185 22.8586H50.4433V22.3276H49.9185V22.8586ZM49.9185 21.7966H50.4433V21.2656H49.9185V21.7966ZM49.9185 20.7346H50.4433V20.2036H49.9185V20.7346ZM49.9185 19.6726H50.4433V19.1416H49.9185V19.6726ZM49.9185 18.6106H50.4433V18.0795H49.9185V18.6106ZM49.9185 17.5485H50.4433V17.0175H49.9185V17.5485ZM49.9185 16.4865H50.4433V15.9555H49.9185V16.4865ZM49.9185 15.4245H50.4433V14.8935H49.9185V15.4245ZM49.9185 14.3625H50.4433V13.8315H49.9185V14.3625ZM49.9185 13.3004H50.4433V12.7694H49.9185V13.3004ZM49.9185 12.2384H50.4433V11.9729C50.4433 11.912 50.4472 11.8523 50.4549 11.794L49.9344 11.7261C49.9239 11.8069 49.9185 11.8893 49.9185 11.9729V12.2384ZM50.0618 11.2497L50.5466 11.4507C50.5925 11.3401 50.6527 11.2365 50.725 11.1425L50.3088 10.8227C50.2089 10.9527 50.1255 11.0961 50.0618 11.2497ZM50.6576 10.4738L50.9774 10.89C51.0715 10.8177 51.175 10.7576 51.2857 10.7117L51.0846 10.2269C50.931 10.2906 50.7876 10.3739 50.6576 10.4738ZM51.5611 10.0995C51.6419 10.0889 51.7242 10.0835 51.8079 10.0835H52.0674V10.6083H51.8079C51.747 10.6083 51.6873 10.6123 51.629 10.6199L51.5611 10.0995ZM52.5864 10.0835V10.6083H53.1054V10.0835H52.5864ZM53.6244 10.0835V10.6083H54.1434V10.0835H53.6244ZM54.6624 10.0835V10.6083H55.1814V10.0835H54.6624ZM55.7004 10.0835V10.6083H56.2194V10.0835H55.7004ZM56.7384 10.0835V10.6083H57.2574V10.0835H56.7384ZM57.7764 10.0835V10.6083H58.2954V10.0835H57.7764ZM58.8144 10.0835V10.6083H59.3334V10.0835H58.8144ZM59.8525 10.0835V10.6083H60.3715V10.0835H59.8525ZM60.8905 10.0835V10.6083H61.4095V10.0835H60.8905ZM61.9285 10.0835V10.6083H62.4475V10.0835H61.9285ZM62.9665 10.0835V10.6083H63.4855V10.0835H62.9665ZM64.0045 10.0835V10.6083H64.5235V10.0835H64.0045ZM65.0425 10.0835V10.6083H65.5615V10.0835H65.0425ZM66.0805 10.0835V10.6083H66.5995V10.0835H66.0805ZM67.1185 10.0835V10.6083H67.6375V10.0835H67.1185ZM68.1565 10.0835V10.6083H68.6755V10.0835H68.1565ZM69.1945 10.0835V10.6083H69.7136V10.0835H69.1945ZM70.2326 10.0835V10.6083H70.4921C70.5753 10.6083 70.6579 10.6106 70.7399 10.6152L70.7688 10.0911C70.6772 10.0861 70.5849 10.0835 70.4921 10.0835H70.2326ZM71.3189 10.1525L71.2315 10.67C71.3954 10.6976 71.5562 10.7343 71.7133 10.7795L71.8584 10.2751C71.6824 10.2245 71.5023 10.1834 71.3189 10.1525ZM72.3805 10.4579L72.1795 10.9427C72.3324 11.006 72.4809 11.0778 72.6246 11.1574L72.8789 10.6983C72.718 10.6092 72.5517 10.5288 72.3805 10.4579ZM73.3471 10.9931L73.043 11.4209C73.1777 11.5166 73.3067 11.6196 73.4296 11.7295L73.7795 11.3383C73.6421 11.2154 73.4977 11.1001 73.3471 10.9931ZM74.1707 11.7296L73.7795 12.0794C73.8894 12.2023 73.9925 12.3313 74.0882 12.466L74.516 12.1619C74.4089 12.0113 74.2936 11.867 74.1707 11.7296ZM74.8108 12.6302L74.3516 12.8844C74.4312 13.0281 74.503 13.1767 74.5664 13.3295L75.0512 13.1285C74.9802 12.9573 74.8998 12.791 74.8108 12.6302ZM75.2339 13.6507L74.7295 13.7957C74.7747 13.9528 74.8114 14.1136 74.839 14.2775L75.3566 14.1902C75.3256 14.0067 75.2845 13.8267 75.2339 13.6507ZM75.4179 14.7402L74.8939 14.7692C74.8984 14.8511 74.9007 14.9338 74.9007 15.017V15.2889H75.4255V15.017C75.4255 14.9241 75.423 14.8318 75.4179 14.7402ZM75.4255 15.8328H74.9007V16.3768H75.4255V15.8328ZM75.4255 16.9207H74.9007V17.4646H75.4255V16.9207ZM75.4255 18.0085H74.9007V18.5525H75.4255V18.0085ZM75.4255 19.0964H74.9007V19.6403H75.4255V19.0964ZM75.4255 20.1842H74.9007V20.7281H75.4255V20.1842ZM75.4255 21.2721H74.9007V21.816H75.4255V21.2721ZM75.4255 22.3599H74.9007V22.9038H75.4255V22.3599ZM75.4255 23.4478H74.9007V23.9917H75.4255V23.4478ZM75.4255 24.5356H74.9007V25.0795H75.4255V24.5356ZM75.4255 25.6234H74.9007V26.1674H75.4255V25.6234ZM75.4255 26.7113H74.9007V26.9832C74.9007 27.0665 74.8984 27.1491 74.8939 27.231L75.4179 27.26C75.423 27.1684 75.4255 27.0761 75.4255 26.9832V26.7113ZM75.3566 27.81L74.839 27.7227C74.8114 27.8866 74.7747 28.0474 74.7295 28.2045L75.2339 28.3496C75.2845 28.1736 75.3256 27.9935 75.3566 27.81ZM75.0512 28.8717L74.5664 28.6707C74.503 28.8235 74.4312 28.9721 74.3516 29.1158L74.8108 29.3701C74.8998 29.2092 74.9802 29.0429 75.0512 28.8717ZM74.516 29.8383L74.0882 29.5342C73.9925 29.6689 73.8894 29.7979 73.7795 29.9208L74.1707 30.2707C74.2936 30.1332 74.4089 29.9889 74.516 29.8383ZM73.7795 30.6619L73.4296 30.2707C73.3067 30.3806 73.1777 30.4837 73.043 30.5794L73.3471 31.0071C73.4977 30.9001 73.6421 30.7848 73.7795 30.6619ZM72.8789 31.3019L72.6246 30.8428C72.4809 30.9224 72.3324 30.9942 72.1795 31.0576L72.3805 31.5424C72.5517 31.4714 72.718 31.391 72.8789 31.3019ZM71.8584 31.7251L71.7133 31.2207C71.5562 31.2659 71.3954 31.3026 71.2315 31.3302L71.3189 31.8477C71.5023 31.8168 71.6824 31.7757 71.8584 31.7251ZM70.7688 31.9091L70.7399 31.385C70.6579 31.3896 70.5753 31.3919 70.4921 31.3919H70.2326V31.9167H70.4921C70.5849 31.9167 70.6772 31.9141 70.7688 31.9091ZM69.7136 31.9167V31.3919H69.1946V31.9167H69.7136ZM68.6755 31.9167V31.3919H68.1565V31.9167H68.6755ZM67.6375 31.9167V31.3919H67.1185V31.9167H67.6375ZM66.5995 31.9167V31.3919H66.0805V31.9167H66.5995ZM65.5615 31.9167V31.3919H65.0425V31.9167H65.5615ZM64.5235 31.9167V31.3919H64.0045V31.9167H64.5235ZM63.4855 31.9167V31.3919H62.9665V31.9167H63.4855ZM62.4475 31.9167V31.3919H61.9285V31.9167H62.4475ZM61.4095 31.9167V31.3919H60.8905V31.9167H61.4095ZM60.3715 31.9167V31.3919H59.8525V31.9167H60.3715ZM59.3335 31.9167V31.3919H58.8144V31.9167H59.3335ZM58.2954 31.9167V31.3919H57.7764V31.9167H58.2954ZM57.2574 31.9167V31.3919H56.7384V31.9167H57.2574ZM56.2194 31.9167V31.3919H55.7004V31.9167H56.2194ZM55.1814 31.9167V31.3919H54.6624V31.9167H55.1814ZM54.1434 31.9167V31.3919H53.6244V31.9167H54.1434ZM53.1054 31.9167V31.3919H52.5864V31.9167H53.1054Z" fill="white"/>
<path d="M64.4038 18.4807C64.4038 17.4952 65.2027 16.6963 66.1883 16.6963H76.9999V23.939H66.1883C65.2027 23.939 64.4038 23.1401 64.4038 22.1546V18.4807Z" fill="#3E549E"/>
<circle cx="68.0254" cy="20.3179" r="1.52203" fill="white"/>
<circle cx="68.025" cy="20.3175" r="0.892223" fill="#54C1F0"/>
</svg>
