<svg width="84" height="42" viewBox="0 0 84 42" fill="none" xmlns="http://www.w3.org/2000/svg">
<path d="M27.9654 23.7256C29.531 17.1363 25.4253 10.5332 18.795 8.97727C12.1647 7.42133 5.52056 11.5017 3.95493 18.091C2.38931 24.6803 6.49504 31.2833 13.1253 32.8393C19.7556 34.3952 26.3997 30.3149 27.9654 23.7256Z" fill="#5F259F"/>
<path d="M58.205 24.8871V21.0548C58.205 20.1115 57.849 19.6398 56.9592 19.6398C56.6032 19.6398 56.1879 19.6987 55.9506 19.7577V25.3588C55.9506 25.5357 55.7726 25.7125 55.5947 25.7125H54.2302C54.0522 25.7125 53.8742 25.5357 53.8742 25.3588V18.8144C53.8742 18.5785 54.0522 18.4017 54.2302 18.3427C55.1201 18.0479 56.0099 17.871 56.9592 17.871C59.0949 17.871 60.2814 18.9912 60.2814 21.0548V25.4177C60.2814 25.5946 60.1034 25.7715 59.9254 25.7715H59.0949C58.5609 25.7715 58.205 25.3588 58.205 24.8871ZM63.5443 22.5877L63.4849 23.1184C63.4849 23.8259 63.9596 24.2386 64.7308 24.2386C65.324 24.2386 65.858 24.0617 66.4512 23.7669C66.5105 23.7669 66.5699 23.7079 66.6292 23.7079C66.7478 23.7079 66.8072 23.7669 66.8665 23.8259C66.9258 23.8848 67.0445 24.0617 67.0445 24.0617C67.1631 24.2386 67.2818 24.4744 67.2818 24.6513C67.2818 24.9461 67.1038 25.2409 66.8665 25.3588C66.2139 25.7125 65.4427 25.8894 64.6121 25.8894C63.6629 25.8894 62.8917 25.6536 62.2984 25.1819C61.7052 24.6513 61.3492 23.9438 61.3492 23.0594V20.76C61.3492 18.9323 62.5357 17.8121 64.5528 17.8121C66.5105 17.8121 67.6377 18.8733 67.6377 20.76V22.175C67.6377 22.3519 67.4598 22.5288 67.2818 22.5288H63.5443V22.5877ZM63.4849 21.2906H65.7393V20.701C65.7393 19.9935 65.324 19.5219 64.6121 19.5219C63.9002 19.5219 63.4849 19.9346 63.4849 20.701V21.2906ZM78.6129 22.5877L78.5536 23.1184C78.5536 23.8259 79.0282 24.2386 79.7994 24.2386C80.3927 24.2386 80.9266 24.0617 81.5199 23.7669C81.5792 23.7669 81.6385 23.7079 81.6979 23.7079C81.8165 23.7079 81.8758 23.7669 81.9352 23.8259C81.9945 23.8848 82.1131 24.0617 82.1131 24.0617C82.2318 24.2386 82.3504 24.4744 82.3504 24.6513C82.3504 24.9461 82.1725 25.2409 81.9352 25.3588C81.2826 25.7125 80.5113 25.8894 79.6808 25.8894C78.7316 25.8894 77.9604 25.6536 77.3671 25.1819C76.7738 24.6513 76.4179 23.9438 76.4179 23.0594V20.76C76.4179 18.9323 77.6044 17.8121 79.6215 17.8121C81.5792 17.8121 82.7064 18.8733 82.7064 20.76V22.175C82.7064 22.3519 82.5284 22.5288 82.3504 22.5288H78.6129V22.5877ZM78.5536 21.2906H80.808V20.701C80.808 19.9935 80.3927 19.5219 79.6808 19.5219C78.9689 19.5219 78.5536 19.9346 78.5536 20.701V21.2906ZM43.6702 25.7715H44.5008C44.6788 25.7715 44.8568 25.5946 44.8568 25.4177V21.0548C44.8568 19.0502 43.7889 17.871 42.0091 17.871C41.4752 17.871 40.882 17.9889 40.526 18.1069V15.9254C40.526 15.4537 40.1107 15.041 39.6361 15.041H38.8056C38.6276 15.041 38.4496 15.2179 38.4496 15.3948V25.4177C38.4496 25.5946 38.6276 25.7715 38.8056 25.7715H40.17C40.348 25.7715 40.526 25.5946 40.526 25.4177V19.8756C40.8226 19.7577 41.2379 19.6987 41.5345 19.6987C42.4244 19.6987 42.7804 20.1115 42.7804 21.1138V24.9461C42.8397 25.3588 43.1957 25.7715 43.6702 25.7715ZM52.6284 20.819V23.0004C52.6284 24.8282 51.3826 25.9484 49.3062 25.9484C47.2891 25.9484 45.9839 24.8282 45.9839 23.0004V20.819C45.9839 18.9912 47.2298 17.871 49.3062 17.871C51.3826 17.871 52.6284 18.9912 52.6284 20.819ZM50.552 20.819C50.552 20.1115 50.1367 19.6398 49.3655 19.6398C48.5943 19.6398 48.179 20.0525 48.179 20.819V23.0004C48.179 23.7079 48.5943 24.1206 49.3655 24.1206C50.1367 24.1206 50.552 23.7079 50.552 23.0004V20.819ZM37.3224 19.8167C37.3224 21.7033 35.8986 23.0004 34.0002 23.0004C33.5256 23.0004 33.1103 22.9415 32.695 22.7646V25.4177C32.695 25.5946 32.5171 25.7715 32.3391 25.7715H30.9746C30.7966 25.7715 30.6187 25.5946 30.6187 25.4177V16.0433C30.6187 15.8075 30.7966 15.6306 30.9746 15.5716C31.8645 15.2769 32.7544 15.1 33.7036 15.1C35.8393 15.1 37.3224 16.3971 37.3224 18.4017V19.8167ZM35.1867 18.2837C35.1867 17.3404 34.5341 16.8687 33.6443 16.8687C33.1103 16.8687 32.7544 17.0456 32.7544 17.0456V20.9369C33.1103 21.1138 33.2883 21.1727 33.7036 21.1727C34.5935 21.1727 35.246 20.6421 35.246 19.7577V18.2837H35.1867ZM75.6467 19.8167C75.6467 21.7033 74.2229 23.0004 72.3244 23.0004C71.8498 23.0004 71.4346 22.9415 71.0193 22.7646V25.4177C71.0193 25.5946 70.8413 25.7715 70.6633 25.7715H69.2988C69.1209 25.7715 68.9429 25.5946 68.9429 25.4177V16.0433C68.9429 15.8075 69.1209 15.6306 69.2988 15.5716C70.1887 15.2769 71.0786 15.1 72.0278 15.1C74.1635 15.1 75.6467 16.3971 75.6467 18.4017V19.8167ZM73.511 18.2837C73.511 17.3404 72.8584 16.8687 71.9685 16.8687C71.4346 16.8687 71.0786 17.0456 71.0786 17.0456V20.9369C71.4346 21.1138 71.6125 21.1727 72.0278 21.1727C72.9177 21.1727 73.5703 20.6421 73.5703 19.7577V18.2837H73.511Z" fill="#5F259F"/>
<path d="M21.4836 17.7708C21.4836 17.2942 21.0686 16.8857 20.5843 16.8857H18.9241L15.1194 12.5963C14.7735 12.1878 14.2201 12.0516 13.6667 12.1878L12.3523 12.5963C12.1448 12.6644 12.0756 12.9367 12.214 13.0729L16.3646 16.9537H10.0695C9.86199 16.9537 9.72363 17.0899 9.72363 17.2942V17.975C9.72363 18.4516 10.1387 18.8601 10.6229 18.8601H11.5914V22.1282C11.5914 24.5793 12.9058 26.0091 15.1194 26.0091C15.8112 26.0091 16.3646 25.941 17.0563 25.6686V27.8474C17.0563 28.4601 17.5406 28.9367 18.1632 28.9367H19.1316C19.3392 28.9367 19.5467 28.7325 19.5467 28.5282V18.792H21.1378C21.3453 18.792 21.4836 18.6559 21.4836 18.4516V17.7708ZM17.0563 23.6261C16.6413 23.8303 16.0879 23.8984 15.6728 23.8984C14.566 23.8984 14.0126 23.3537 14.0126 22.1282V18.8601H17.0563V23.6261Z" fill="white"/>
</svg>
