<svg width="58" height="42" viewBox="0 0 58 42" fill="none" xmlns="http://www.w3.org/2000/svg">
<path d="M42.3338 14.9292L46.0334 14.2708V28.4654H42.3338V14.9292ZM47.7342 14.9292V28.4576H51.4338V14.2708L47.7342 14.9292ZM37.0745 28.4576H40.7741V18.0801H37.0745V28.4576ZM12.6277 19.5458C12.1574 19.5144 11.0758 19.4439 11.0758 18.472C11.0758 17.2963 12.6355 17.2963 13.2156 17.2963C14.2423 17.2963 15.5748 17.6019 16.5232 17.8841C16.5232 17.8841 17.0562 18.0722 17.503 18.2603L17.5421 18.2682V15.0546L17.4873 15.0389C16.3664 14.647 15.0653 14.2708 12.6434 14.2708C8.47355 14.2708 7 16.7006 7 18.7776C7 19.9769 7.51731 22.7985 12.2907 23.1277C12.6982 23.1513 13.7721 23.214 13.7721 24.2251C13.7721 25.0559 12.8942 25.5497 11.4128 25.5497C9.79034 25.5497 8.22273 25.1343 7.26649 24.7424V28.0579C8.69301 28.4341 10.3076 28.6222 12.1966 28.6222C16.2724 28.6222 18.0986 26.3257 18.0986 24.0448C18.0986 21.4582 16.0608 19.7809 12.6277 19.5458ZM34.9896 17.9311C31.5722 18.0409 29.84 19.5771 29.84 22.6261V28.4654H33.5709V23.6999C33.5709 21.8737 33.8061 21.0899 35.9772 21.0193V17.9782C35.601 17.9076 34.9896 17.9311 34.9896 17.9311ZM24.9569 18.0722C24.8785 18.276 24.2829 19.9533 22.8485 21.6855V14.2708L19.0314 15.0232V28.4576H22.8485V24.3034C23.9537 25.9651 24.5023 28.4576 24.5023 28.4576H29.0719C28.6173 26.5765 26.6421 23.1121 26.6421 23.1121C28.4135 20.8626 29.1973 18.4641 29.3227 18.0644H24.9569V18.0722ZM38.9165 17.0846C39.9197 17.0846 40.7427 16.2695 40.7427 15.2662C40.7427 14.2629 39.9276 13.4399 38.9165 13.4399C37.9132 13.4399 37.098 14.2551 37.098 15.2662C37.098 16.2695 37.9132 17.0846 38.9165 17.0846Z" fill="url(#paint0_linear_12_6934)"/>
<defs>
<linearGradient id="paint0_linear_12_6934" x1="7.00784" y1="21.0262" x2="51.4363" y2="21.0262" gradientUnits="userSpaceOnUse">
<stop stop-color="#B5388C"/>
<stop offset="1" stop-color="#944E9E"/>
</linearGradient>
</defs>
</svg>
