<svg width="35" height="34" viewBox="0 0 35 34" fill="none" xmlns="http://www.w3.org/2000/svg">
<rect x="1.10714" y="0.607143" width="32.7857" height="32.7857" rx="16.3929" stroke="#898989" stroke-width="1.21429"/>
<path d="M13.4564 13.0379V21.0952H11.5915V15.1408L9.75428 15.6776V14.2609L13.2849 13.0379H13.4564ZM21.4971 18.8761C21.4971 19.3889 21.3754 19.8187 21.1319 20.1655C20.8921 20.5123 20.5601 20.7724 20.1358 20.9458C19.7152 21.1192 19.2356 21.2059 18.697 21.2059C18.162 21.2059 17.6806 21.1192 17.2527 20.9458C16.8284 20.7724 16.4927 20.5123 16.2455 20.1655C15.9983 19.8187 15.8747 19.3889 15.8747 18.8761C15.8747 18.5257 15.9448 18.2121 16.085 17.9354C16.2289 17.655 16.4281 17.417 16.6827 17.2215C16.9372 17.026 17.2342 16.8766 17.5736 16.7733C17.9167 16.67 18.2875 16.6183 18.6859 16.6183C19.2245 16.6183 19.706 16.7106 20.1303 16.895C20.5545 17.0758 20.8884 17.334 21.1319 17.6698C21.3754 18.0055 21.4971 18.4076 21.4971 18.8761ZM19.6211 18.7267C19.6211 18.5054 19.5824 18.3191 19.5049 18.1678C19.4275 18.0129 19.3186 17.8948 19.1784 17.8136C19.0382 17.7325 18.8741 17.6919 18.6859 17.6919C18.5015 17.6919 18.3373 17.7325 18.1934 17.8136C18.0532 17.8948 17.9425 18.0129 17.8614 18.1678C17.7839 18.3191 17.7452 18.5054 17.7452 18.7267C17.7452 18.9407 17.7857 19.127 17.8669 19.2856C17.9481 19.4406 18.0587 19.5605 18.1989 19.6453C18.3428 19.7265 18.5088 19.7671 18.697 19.7671C18.8851 19.7671 19.0475 19.7265 19.184 19.6453C19.3242 19.5605 19.4311 19.4406 19.5049 19.2856C19.5824 19.127 19.6211 18.9407 19.6211 18.7267ZM21.3311 15.1906C21.3311 15.6112 21.2186 15.9801 20.9935 16.2974C20.7722 16.6109 20.4623 16.8563 20.0638 17.0334C19.6691 17.2068 19.2135 17.2935 18.697 17.2935C18.1842 17.2935 17.7267 17.2068 17.3246 17.0334C16.9262 16.8563 16.6126 16.6109 16.3838 16.2974C16.1588 15.9801 16.0463 15.6112 16.0463 15.1906C16.0463 14.6962 16.1588 14.2812 16.3838 13.9455C16.6126 13.6098 16.9262 13.3552 17.3246 13.1818C17.723 13.0084 18.1768 12.9217 18.6859 12.9217C19.2024 12.9217 19.6599 13.0084 20.0583 13.1818C20.4568 13.3552 20.7685 13.6098 20.9935 13.9455C21.2186 14.2812 21.3311 14.6962 21.3311 15.1906ZM19.4662 15.2902C19.4662 15.0984 19.4367 14.9342 19.3777 14.7977C19.3186 14.6575 19.2319 14.5505 19.1176 14.4767C19.0032 14.3993 18.8593 14.3605 18.6859 14.3605C18.5199 14.3605 18.3797 14.3974 18.2653 14.4712C18.151 14.545 18.0643 14.652 18.0053 14.7922C17.9462 14.9287 17.9167 15.0947 17.9167 15.2902C17.9167 15.482 17.9462 15.6499 18.0053 15.7938C18.0643 15.9377 18.151 16.0502 18.2653 16.1313C18.3834 16.2125 18.5273 16.2531 18.697 16.2531C18.8704 16.2531 19.0124 16.2125 19.1231 16.1313C19.2375 16.0502 19.3223 15.9377 19.3777 15.7938C19.4367 15.6499 19.4662 15.482 19.4662 15.2902ZM27.7504 16.5243V18.1235H22.2276V16.5243H27.7504ZM25.8689 14.4214V20.2873H24.1257V14.4214H25.8689Z" fill="#898989"/>
</svg>
