<svg width="153" height="34" viewBox="0 0 153 34" fill="none" xmlns="http://www.w3.org/2000/svg">
<circle cx="17" cy="17" r="17" fill="white"/>
<path d="M12.905 1.93627C13.6085 1.51935 14.4775 1.43597 15.2224 1.68612C15.1396 2.06134 15.0569 2.47826 15.0155 2.85348C14.6017 2.72841 14.1464 2.68672 13.7326 2.85348C13.3602 3.02025 13.0705 3.43717 13.0705 3.85408C13.0705 4.2293 13.1946 4.68791 13.5257 4.89637C13.8982 5.18821 14.4361 5.10483 14.8086 4.85468L14.5603 3.72901C14.9327 3.64562 15.3465 3.56224 15.719 3.47886L16.2156 5.60513C15.6362 6.02204 14.9327 6.2305 14.2292 6.31388C13.6085 6.35558 12.9463 6.14712 12.5325 5.68851C12.0773 5.2299 11.8704 4.56284 11.8704 3.93746C11.7876 3.14532 12.2015 2.35318 12.905 1.93627ZM18.4916 2.14473C19.1538 1.56104 20.1883 1.43597 20.9746 1.7695L20.8504 3.14532C20.6021 2.97856 20.3125 2.89517 20.0228 2.89517C19.6503 2.89517 19.2779 3.06194 19.071 3.39547C18.8227 3.81239 18.8641 4.39607 19.2365 4.7296C19.609 5.10483 20.1883 5.14652 20.6849 4.97975C20.6022 5.43836 20.478 5.89697 20.3952 6.35558C19.7331 6.39727 19.0296 6.2305 18.4916 5.81358C18.0364 5.43836 17.7467 4.89637 17.664 4.31269C17.5812 3.47886 17.8709 2.64503 18.4916 2.14473ZM24.4094 3.81239C25.5681 3.56224 26.8096 4.39607 27.0165 5.56343C27.1406 6.18881 27.0165 6.85587 26.6854 7.39786C26.2716 8.10662 25.4439 8.56523 24.6163 8.56523C24.0369 8.56523 23.4576 8.31508 23.0437 7.89816C22.5058 7.39786 22.2988 6.56403 22.423 5.85528C22.5885 4.85468 23.4162 3.97916 24.4094 3.81239ZM24.5335 5.10483C23.9542 5.2299 23.5403 5.85528 23.6645 6.43896C23.7472 6.98095 24.2852 7.39787 24.8232 7.31448C25.3612 7.27279 25.8164 6.77249 25.8578 6.2305C25.8991 5.89697 25.775 5.60513 25.5267 5.39667C25.2784 5.10483 24.906 5.02145 24.5335 5.10483ZM6.49064 5.52174C6.82171 5.2299 7.15277 4.93806 7.52521 4.64622C8.89084 5.48005 10.2565 6.31388 11.6635 7.10602C11.3324 7.39786 11.0427 7.64801 10.7117 7.93985C10.5462 7.85647 10.422 7.7314 10.2565 7.64801C9.84264 7.98155 9.4702 8.35677 9.05637 8.6903C9.09776 8.85707 9.18052 9.02384 9.26329 9.1906C8.93222 9.44075 8.64254 9.73259 8.31148 10.0244C7.69074 8.52354 7.07 7.02264 6.49064 5.52174ZM7.85627 6.14712C8.06319 6.64742 8.2701 7.10602 8.5184 7.60632C8.76669 7.39787 8.97361 7.18941 9.2219 6.98095C8.76669 6.7308 8.31148 6.43896 7.85627 6.14712ZM25.9405 10.5664C27.2648 9.81598 28.589 9.06553 29.9546 8.35677C30.1616 8.73199 30.3685 9.14891 30.6168 9.52413C30.8237 9.94105 30.9892 10.3997 30.9478 10.8583C30.8651 11.4836 30.2857 11.9006 29.7063 11.9839C29.4167 12.0256 29.127 11.9006 28.9201 11.7338C28.5062 12.3592 28.0924 12.9845 27.6786 13.5682L27.0579 12.4425L28.2993 10.6915C27.72 11.025 27.182 11.3169 26.6026 11.6504C26.313 11.2752 26.1061 10.9416 25.9405 10.5664ZM28.6304 10.4413C28.7132 10.6081 28.7959 10.7749 28.9615 10.8583C29.2925 11.0667 29.7891 10.7749 29.7891 10.358C29.7891 10.1912 29.7063 10.0244 29.6236 9.85767C29.2925 10.0661 28.9615 10.2746 28.6304 10.4413ZM4.04907 8.98214C4.38013 8.77369 4.83534 8.77369 5.20778 8.89876C5.70437 9.06553 6.15958 9.39906 6.3665 9.89936C6.57341 10.358 6.49064 10.9 6.24235 11.3169C6.20096 11.4003 6.1182 11.4836 6.1182 11.6087C6.44926 11.8172 6.82171 12.0256 7.19415 12.1924C6.98724 12.5259 6.82171 12.9012 6.61479 13.2347C5.29055 12.4842 3.9663 11.7338 2.64205 11.025C2.80758 10.6915 3.0145 10.358 3.18003 10.0244C3.38694 9.60752 3.63524 9.1906 4.04907 8.98214ZM4.13183 10.483C4.46289 10.6498 4.75257 10.8583 5.08363 11.025C5.1664 10.8583 5.24916 10.6915 5.24916 10.5247C5.24916 10.2329 4.9181 10.0244 4.62842 10.0244C4.38013 10.0661 4.21459 10.2746 4.13183 10.483ZM2.14546 14.277C2.43514 14.2353 2.80758 14.277 2.97311 14.5688C3.05588 14.7356 3.05588 14.9023 3.0145 15.0691C2.5179 18.5712 3.38694 22.2401 5.4147 25.1585H13.1946C13.5671 24.0328 13.9395 22.9488 14.312 21.8231C14.3947 21.573 14.4361 21.3229 14.6017 21.1561C14.7672 20.9059 15.0983 20.6975 15.4293 20.7392C15.6776 20.7809 15.8845 20.9059 16.0087 21.1561C16.1328 21.4062 16.1328 21.6564 16.1328 21.9482C15.6776 25.4503 15.2224 28.9524 14.8086 32.4545C11.4566 31.9542 8.31148 30.3282 5.95267 27.8684C3.718 25.5754 2.22823 22.5736 1.73163 19.3633C1.48334 17.8208 1.48334 16.2365 1.73163 14.6939C1.73163 14.4437 1.93855 14.3187 2.14546 14.277ZM31.1134 14.402C31.403 14.1936 31.8169 14.1936 32.1065 14.402C32.2721 14.5271 32.2721 14.7356 32.3135 14.944C32.6031 16.9869 32.4376 19.1132 31.8996 21.1144C31.072 24.0328 29.4167 26.7428 27.1406 28.744C24.9473 30.7035 22.1333 31.9959 19.2365 32.4128C18.7813 28.9107 18.3261 25.4086 17.8709 21.9482C17.8295 21.6564 17.8709 21.3645 18.0364 21.1144C18.1606 20.8642 18.4503 20.7392 18.7399 20.7809C19.2365 20.8225 19.5676 21.3228 19.6917 21.7815C20.0642 22.9071 20.4366 24.0745 20.8091 25.2002H28.589C30.6168 22.2818 31.4858 18.5712 30.9478 15.0691C30.8651 14.819 30.9478 14.5688 31.1134 14.402ZM3.59385 14.944C3.67662 14.5688 4.13183 14.4854 4.42151 14.5688C4.71119 14.6522 4.9181 14.944 4.83534 15.2776C4.38013 18.4461 5.20778 21.7815 7.07 24.3663H5.49746C4.62842 22.8654 3.9663 21.2395 3.63524 19.5301C3.38694 18.0292 3.34556 16.4449 3.59385 14.944ZM29.127 14.9023C29.3339 14.4437 30.2029 14.402 30.3271 14.944C30.6581 16.9035 30.534 18.9047 29.9546 20.8226C29.5822 22.0733 29.0442 23.2407 28.3821 24.3663H26.8096C28.6718 21.8231 29.4994 18.4878 29.0442 15.361C29.0856 15.1942 29.0442 15.0274 29.127 14.9023ZM5.53884 15.3193C5.62161 14.944 6.03543 14.7773 6.3665 14.8607C6.65617 14.944 6.90447 15.2359 6.82171 15.5694C6.53203 17.4872 6.82171 19.4884 7.60798 21.2812C8.10457 22.4068 8.80808 23.4491 9.67711 24.3663H7.93904C5.95267 21.8648 5.04225 18.4878 5.53884 15.3193ZM27.1406 15.5277C27.0992 15.1942 27.3475 14.944 27.6372 14.8607C27.9683 14.7773 28.3821 14.944 28.4235 15.3193C28.7545 17.4038 28.4649 19.5718 27.6786 21.5313C27.2648 22.5319 26.7268 23.4908 26.0233 24.3246H24.2438C25.4853 23.0322 26.4371 21.4479 26.8923 19.6969C27.2648 18.3627 27.3475 16.9035 27.1406 15.5277ZM7.48383 15.6528C7.52521 15.4026 7.73213 15.1942 7.93904 15.1525C8.22872 15.0691 8.55978 15.1942 8.72531 15.486C8.80808 15.6528 8.76669 15.8196 8.76669 15.9863C8.47702 17.9458 8.97361 20.0304 10.0496 21.6981C10.7531 22.8237 11.7462 23.741 12.8636 24.408H10.7531C10.6703 24.408 10.6289 24.408 10.5875 24.3246C9.34605 23.199 8.43563 21.7815 7.89766 20.1972C7.40106 18.738 7.23553 17.1537 7.48383 15.6528ZM25.2784 15.4443C25.5267 15.0691 26.1474 15.0274 26.3957 15.4026C26.5199 15.5694 26.5199 15.7779 26.5613 15.9863C26.7682 17.8624 26.4371 19.822 25.5681 21.4896C25.0301 22.5736 24.2852 23.5325 23.4162 24.3246C23.3748 24.408 23.2506 24.3663 23.2093 24.3663H21.1401C22.3816 23.6159 23.4576 22.5319 24.2024 21.2812C25.1129 19.6969 25.4853 17.7791 25.237 15.9446C25.1542 15.7779 25.1542 15.5694 25.2784 15.4443Z" fill="#457E40"/>
<path d="M16.8582 11.0145C16.9018 10.7965 16.9018 10.5784 16.9454 10.3604C17.0763 11.2762 17.1853 12.2138 17.3161 13.1296C17.6432 12.7371 17.9485 12.3228 18.2756 11.9303C18.232 12.4537 18.1883 12.977 18.1447 13.5221C18.7335 13.1514 19.3222 12.7589 19.911 12.3883C19.5403 12.977 19.1478 13.5657 18.7771 14.1545C19.3222 14.0891 19.8892 14.0237 20.4343 13.9582C19.9982 14.2853 19.5403 14.6124 19.1042 14.9395C19.7365 15.0703 20.3907 15.2011 21.023 15.3538C20.3689 15.5282 19.7147 15.6591 19.0388 15.8335C19.4749 16.1606 19.9328 16.4877 20.3689 16.8147C19.8019 16.7493 19.2132 16.6839 18.6463 16.6185C19.017 17.1854 19.4095 17.7524 19.8019 18.3193C19.235 17.9704 18.6899 17.6215 18.1447 17.2727C17.9049 17.1418 17.556 17.229 17.4034 17.4471C17.3597 17.5125 17.3161 17.6215 17.3161 17.7088C17.2071 18.5374 17.0981 19.3442 16.9891 20.1728C16.8582 19.3442 16.771 18.4938 16.6402 17.6651C16.5748 17.3163 16.1168 17.0982 15.8116 17.2727C15.2446 17.6215 14.6995 17.9704 14.1326 18.3193C14.5251 17.7524 14.9175 17.1854 15.2882 16.6185C14.6995 16.6839 14.1326 16.7493 13.5438 16.8147C14.0017 16.4877 14.4378 16.1606 14.8739 15.8335C14.2198 15.6809 13.5656 15.5282 12.8896 15.3756C13.522 15.2229 14.1762 15.1139 14.8085 14.9613L13.5002 13.98C14.0453 14.0455 14.5905 14.1109 15.1574 14.1763C14.7867 13.5875 14.3942 13.0206 14.0235 12.4319C14.6123 12.8026 15.1792 13.195 15.768 13.5657L15.6371 11.9958C15.9642 12.3883 16.2695 12.8026 16.5966 13.195C16.6838 12.4319 16.771 11.7341 16.8582 11.0145Z" fill="#F8F400"/>
<path d="M42 7.99337H49.0747C50.3013 7.99337 51.3768 8.0697 52.3011 8.22235C53.234 8.36652 54.0417 8.5743 54.7241 8.84568C55.4065 9.11707 55.9723 9.44358 56.4215 9.82521C56.8793 10.2068 57.2421 10.6266 57.5099 11.0846C57.7863 11.5341 57.9807 12.0175 58.093 12.5348C58.2053 13.0521 58.2614 13.5864 58.2614 14.1377C58.2614 14.6041 58.2053 15.0705 58.093 15.537C57.9893 16.0034 57.8079 16.4487 57.5488 16.8727C57.2983 17.2967 56.9614 17.6911 56.5381 18.0558C56.1148 18.4204 55.5922 18.7385 54.9703 19.0098C54.357 19.2812 53.627 19.4932 52.7805 19.6459C51.9426 19.7985 50.9751 19.8749 49.878 19.8749C49.7226 19.8749 49.5282 19.8749 49.295 19.8749C49.0617 19.8664 48.8328 19.8537 48.6082 19.8367L47.8049 19.7858V25.981H42V7.99337ZM47.8049 17.0253H49.1395C49.7614 17.0253 50.284 16.9533 50.7073 16.8091C51.1306 16.6564 51.4718 16.4529 51.7309 16.1985C51.9901 15.9441 52.1758 15.643 52.2881 15.2953C52.4004 14.9476 52.4566 14.5744 52.4566 14.1758C52.4566 13.5398 52.3745 13.014 52.2104 12.5984C52.0462 12.1829 51.813 11.8521 51.5107 11.6062C51.217 11.3517 50.8671 11.1736 50.4611 11.0719C50.0551 10.9701 49.6146 10.9192 49.1395 10.9192H47.8049V17.0253Z" fill="#457E40"/>
<path d="M74.7691 25.981H67.8498L66.9947 22.1519H62.4466L61.6303 25.981H56.9527L61.6174 7.99337H69.7287L74.7691 25.981ZM64.779 10.792L63.0038 19.1752H66.7096L65.1806 10.792H64.779Z" fill="#457E40"/>
<path d="M86.1456 26.3499C85.1954 26.3499 84.2884 26.2439 83.4245 26.0319C82.5607 25.8283 81.7574 25.5315 81.0145 25.1414C80.2716 24.7513 79.5978 24.2764 78.9931 23.7166C78.3971 23.1569 77.8831 22.5251 77.4512 21.8212C77.0279 21.1173 76.6997 20.3498 76.4665 19.5187C76.2332 18.6876 76.1166 17.8013 76.1166 16.86C76.1166 15.4861 76.393 14.2352 76.9459 13.1072C77.5074 11.9708 78.2848 10.9998 79.2782 10.1941C80.2802 9.37997 81.468 8.7524 82.8415 8.3114C84.2236 7.8704 85.7396 7.6499 87.3895 7.6499C88.2792 7.6499 89.2208 7.71775 90.2142 7.85344C91.2076 7.98065 92.201 8.18843 93.1944 8.47677L92.3651 12.5475C91.4754 12.2337 90.6634 12.0175 89.9291 11.8987C89.1949 11.7715 88.4865 11.7079 87.8041 11.7079C86.8971 11.7079 86.0808 11.8351 85.3552 12.0896C84.6296 12.3355 84.0119 12.6832 83.5023 13.1327C82.9926 13.5822 82.5996 14.1292 82.3232 14.7737C82.0554 15.4098 81.9215 16.1137 81.9215 16.8854C81.9215 17.742 82.0122 18.5052 82.1936 19.1752C82.375 19.8452 82.6557 20.4134 83.0358 20.8798C83.4159 21.3463 83.8953 21.7025 84.4741 21.9484C85.0615 22.1943 85.7569 22.3173 86.5602 22.3173H88.2188V18.59L85.3163 18.9717V15.8041H93.1944V24.4036C92.5551 24.7767 91.9375 25.0905 91.3415 25.3449C90.7454 25.5909 90.158 25.7902 89.5793 25.9428C89.0005 26.087 88.4261 26.1888 87.8559 26.2481C87.2945 26.316 86.7243 26.3499 86.1456 26.3499Z" fill="#457E40"/>
<path d="M96.1616 17.0253C96.1616 15.5751 96.4251 14.2733 96.952 13.12C97.4876 11.9581 98.2088 10.9743 99.1159 10.1687C100.023 9.35453 101.077 8.73119 102.277 8.29868C103.478 7.86616 104.752 7.6499 106.1 7.6499C107.041 7.6499 108 7.73895 108.976 7.91705C109.952 8.09514 110.924 8.41741 111.892 8.88385L111.088 12.9546C110.328 12.5475 109.577 12.2422 108.834 12.0387C108.091 11.8351 107.409 11.7334 106.787 11.7334C106.035 11.7334 105.361 11.8563 104.765 12.1023C104.169 12.3397 103.664 12.6875 103.249 13.1454C102.835 13.6034 102.515 14.1589 102.29 14.8119C102.074 15.4649 101.966 16.2027 101.966 17.0253C101.966 17.848 102.074 18.5858 102.29 19.2388C102.515 19.8918 102.835 20.4473 103.249 20.9053C103.664 21.3632 104.169 21.7152 104.765 21.9611C105.361 22.1986 106.035 22.3173 106.787 22.3173C107.409 22.3173 108.091 22.2155 108.834 22.012C109.577 21.8085 110.328 21.5032 111.088 21.0961L111.892 25.1668C110.924 25.6248 109.952 25.9343 108.976 26.0955C108 26.2651 107.041 26.3499 106.1 26.3499C104.752 26.3499 103.478 26.1379 102.277 25.7138C101.077 25.2813 100.023 24.6665 99.1159 23.8693C98.2088 23.0636 97.4876 22.0841 96.952 20.9307C96.4251 19.7773 96.1616 18.4755 96.1616 17.0253Z" fill="#457E40"/>
<path d="M123.774 26.3499C122.642 26.3499 121.631 26.2269 120.742 25.981C119.852 25.7435 119.066 25.4128 118.383 24.9887C117.71 24.5562 117.135 24.0474 116.66 23.4622C116.194 22.8686 115.809 22.2283 115.507 21.5413C115.213 20.8459 114.997 20.1166 114.859 19.3533C114.729 18.59 114.665 17.8141 114.665 17.0253C114.665 16.2451 114.747 15.4734 114.911 14.7101C115.075 13.9384 115.321 13.2048 115.649 12.5094C115.978 11.8139 116.392 11.1694 116.893 10.5758C117.394 9.9821 117.982 9.46902 118.655 9.0365C119.329 8.60398 120.089 8.26475 120.936 8.01881C121.791 7.77287 122.737 7.6499 123.774 7.6499C124.81 7.6499 125.752 7.77287 126.598 8.01881C127.454 8.26475 128.218 8.60398 128.892 9.0365C129.574 9.46902 130.166 9.9821 130.667 10.5758C131.168 11.1694 131.583 11.8139 131.911 12.5094C132.248 13.2048 132.498 13.9384 132.662 14.7101C132.826 15.4734 132.909 16.2451 132.909 17.0253C132.909 17.8141 132.839 18.59 132.701 19.3533C132.563 20.1166 132.343 20.8459 132.04 21.5413C131.747 22.2283 131.362 22.8686 130.887 23.4622C130.412 24.0474 129.838 24.5562 129.164 24.9887C128.49 25.4128 127.704 25.7435 126.806 25.981C125.916 26.2269 124.905 26.3499 123.774 26.3499ZM120.47 17.0253C120.47 18.043 120.543 18.9123 120.69 19.6332C120.845 20.354 121.061 20.9434 121.338 21.4014C121.623 21.8594 121.968 22.1943 122.374 22.4064C122.789 22.6184 123.255 22.7244 123.774 22.7244C124.292 22.7244 124.754 22.6184 125.16 22.4064C125.575 22.1943 125.925 21.8594 126.21 21.4014C126.503 20.9434 126.724 20.354 126.87 19.6332C127.026 18.9123 127.104 18.043 127.104 17.0253C127.104 16.0077 127.026 15.1384 126.87 14.4175C126.724 13.6882 126.503 13.0945 126.21 12.6366C125.925 12.1701 125.575 11.8267 125.16 11.6062C124.754 11.3857 124.292 11.2754 123.774 11.2754C123.255 11.2754 122.789 11.3857 122.374 11.6062C121.968 11.8267 121.623 12.1701 121.338 12.6366C121.061 13.0945 120.845 13.6882 120.69 14.4175C120.543 15.1384 120.47 16.0077 120.47 17.0253Z" fill="#457E40"/>
<path d="M136.329 7.99337H144.57C145.874 7.99337 147.023 8.16299 148.017 8.50222C149.01 8.83296 149.835 9.27396 150.492 9.82521C151.157 10.368 151.658 10.9871 151.995 11.6825C152.332 12.3694 152.5 13.0648 152.5 13.7687C152.5 14.32 152.444 14.867 152.332 15.4098C152.219 15.9441 152.021 16.4529 151.736 16.9363C151.45 17.4112 151.057 17.8437 150.556 18.2338C150.064 18.6155 149.433 18.925 148.665 19.1625C148.777 19.5187 148.967 19.9597 149.235 20.4855C149.503 21.0113 149.814 21.5795 150.168 22.1901C150.522 22.8007 150.902 23.4325 151.308 24.0855C151.714 24.7386 152.111 25.3704 152.5 25.981H145.866C145.494 25.1584 145.114 24.2382 144.726 23.2205C144.337 22.1943 144.026 21.0791 143.793 19.8749H142.134V25.981H136.329V7.99337ZM143.119 17.0253C143.775 17.0253 144.328 16.9405 144.777 16.7709C145.235 16.6013 145.607 16.3808 145.892 16.1094C146.177 15.838 146.38 15.5327 146.501 15.1935C146.63 14.8543 146.695 14.515 146.695 14.1758C146.695 13.5058 146.6 12.9588 146.41 12.5348C146.22 12.1108 145.961 11.78 145.633 11.5426C145.304 11.2966 144.924 11.1312 144.492 11.0464C144.06 10.9616 143.598 10.9192 143.106 10.9192H142.134V17.0253H143.119Z" fill="#457E40"/>
</svg>
