<svg width="32" height="32" viewBox="0 0 32 32" fill="none" xmlns="http://www.w3.org/2000/svg">
<path fill-rule="evenodd" clip-rule="evenodd" d="M16.3641 4.31331C14.09 4.23757 11.7924 4.85802 9.80877 6.18211C7.58086 7.67082 6.02388 9.86922 5.30672 12.3268C5.10868 12.3026 4.87152 12.3133 4.58992 12.3929C3.53854 12.6913 2.74779 13.5528 2.39223 14.3115C1.93108 15.3003 1.73659 16.6081 1.94174 17.9581C2.14548 19.3039 2.71401 20.4132 3.42512 21.1019C4.13837 21.791 4.9437 22.015 5.7437 21.8468C6.93481 21.5926 7.52539 21.4024 7.35863 20.2927L6.55117 14.9135C6.71401 12.0022 8.22121 9.26157 10.7421 7.57624C14.1163 5.32237 18.5401 5.46673 21.7586 7.93748C23.9976 9.65411 25.2975 12.2262 25.4475 14.9263L24.8829 18.6891C23.6235 22.1355 20.5014 24.5227 16.8886 24.8616H14.4829C13.8621 24.8616 13.3622 25.3615 13.3622 25.9816V26.5725C13.3622 27.1929 13.8621 27.6929 14.4829 27.6929H17.5161C18.1366 27.6929 18.6344 27.1929 18.6344 26.5725V26.2635C21.3586 25.5986 23.7366 23.9243 25.285 21.5894L26.2568 21.8472C27.0475 22.0523 27.8625 21.791 28.5753 21.1023C29.2865 20.4132 29.8546 19.3042 30.0587 17.9585C30.2646 16.6084 30.0644 15.3028 29.6086 14.3119C29.151 13.3209 28.4694 12.6916 27.6825 12.4658C27.3529 12.3709 26.9953 12.3361 26.6884 12.3268C26.0399 10.1046 24.7048 8.08362 22.7805 6.60806C20.8886 5.15633 18.6383 4.38797 16.3641 4.31331Z" fill="#F3B867"/>
<path fill-rule="evenodd" clip-rule="evenodd" d="M19.9144 13.9908C20.7161 13.9908 21.3661 14.6407 21.3679 15.4447C21.3661 16.2464 20.7161 16.8982 19.9144 16.8982C19.1105 16.8982 18.4587 16.2464 18.4587 15.4447C18.4587 14.6411 19.1108 13.9908 19.9144 13.9908ZM15.9997 13.9908C16.8033 13.9908 17.4532 14.6407 17.4532 15.4447C17.4532 16.2464 16.8033 16.8982 15.9997 16.8982C15.1954 16.8982 14.5455 16.2464 14.5455 15.4447C14.5455 14.6411 15.1954 13.9908 15.9997 13.9908ZM12.0865 13.9908C12.8882 13.9908 13.54 14.6407 13.54 15.4447C13.54 16.2464 12.8882 16.8982 12.0865 16.8982C11.2829 16.8982 10.6326 16.2464 10.6326 15.4447C10.6326 14.6411 11.2829 13.9908 12.0865 13.9908ZM15.9997 7.74652C11.7366 7.74652 8.30121 11.0688 8.30121 15.4447C8.30121 17.5463 9.09587 19.4038 10.3905 20.7666L9.93108 22.826C9.77961 23.5037 10.2497 23.9595 10.8587 23.6203L12.8697 22.4985C13.8255 22.9135 14.8825 23.1428 15.9997 23.1428C20.2642 23.1428 23.6975 19.8226 23.6975 15.4447C23.6975 11.0688 20.2642 7.74652 15.9997 7.74652Z" fill="#F3B867"/>
</svg>
