<svg width="32" height="32" viewBox="0 0 32 32" fill="none" xmlns="http://www.w3.org/2000/svg">
<path d="M27.49 8.78C27.3388 7.70762 26.8455 6.71272 26.0833 5.94334C25.3211 5.17396 24.3309 4.67124 23.26 4.51C18.4573 3.83 13.5827 3.83 8.78 4.51C7.70763 4.66116 6.71272 5.15453 5.94334 5.9167C5.17396 6.67887 4.67125 7.66909 4.51 8.74C3.83 13.5427 3.83 18.4173 4.51 23.22C4.66116 24.2924 5.15454 25.2873 5.91671 26.0567C6.67888 26.826 7.6691 27.3288 8.74 27.49C11.1451 27.83 13.571 28.0004 16 28C18.4157 28.0001 20.8283 27.8296 23.22 27.49C24.2924 27.3388 25.2873 26.8455 26.0567 26.0833C26.826 25.3211 27.3288 24.3309 27.49 23.26C27.83 20.855 28.0004 18.429 28 16C28.0001 13.5843 27.8296 11.1717 27.49 8.78ZM20 23H12C11.7348 23 11.4804 22.8946 11.2929 22.7071C11.1054 22.5196 11 22.2652 11 22C11 21.7348 11.1054 21.4804 11.2929 21.2929C11.4804 21.1054 11.7348 21 12 21H20C20.2652 21 20.5196 21.1054 20.7071 21.2929C20.8946 21.4804 21 21.7348 21 22C21 22.2652 20.8946 22.5196 20.7071 22.7071C20.5196 22.8946 20.2652 23 20 23ZM17.293 16.293C17.4816 16.1108 17.7342 16.01 17.9964 16.0123C18.2586 16.0146 18.5094 16.1198 18.6948 16.3052C18.8802 16.4906 18.9854 16.7414 18.9877 17.0036C18.99 17.2658 18.8892 17.5184 18.707 17.707L16.707 19.707C16.6142 19.7999 16.504 19.8736 16.3827 19.9238C16.2613 19.9741 16.1313 20 16 20C15.8687 20 15.7387 19.9741 15.6173 19.9238C15.496 19.8736 15.3858 19.7999 15.293 19.707L13.293 17.707C13.1108 17.5184 13.01 17.2658 13.0123 17.0036C13.0146 16.7414 13.1198 16.4906 13.3052 16.3052C13.4906 16.1198 13.7414 16.0146 14.0036 16.0123C14.2658 16.01 14.5184 16.1108 14.707 16.293L15 16.5859V10C15 9.73478 15.1054 9.48043 15.2929 9.29289C15.4804 9.10536 15.7348 9 16 9C16.2652 9 16.5196 9.10536 16.7071 9.29289C16.8946 9.48043 17 9.73478 17 10V16.5859L17.293 16.293Z" fill="#F3B867"/>
</svg>
