<svg width="98" height="32" viewBox="0 0 98 32" fill="none" xmlns="http://www.w3.org/2000/svg">
<path d="M96.7113 28.3098C96.7113 29.904 95.5629 31.1465 94.1991 31.1465H3.80487C2.44133 31.1465 1.28906 29.9035 1.28906 28.3098V3.69469C1.28906 2.10134 2.44177 0.854004 3.80487 0.854004H94.1984C95.5624 0.854004 96.7106 2.1008 96.7106 3.69469L96.7113 28.3098Z" fill="white" stroke="#A6A6A6" stroke-width="0.5"/>
<path d="M23.195 15.636C23.1712 13.1093 25.3564 11.88 25.4563 11.8228C24.2188 10.0957 22.3006 9.85976 21.6265 9.84094C20.0155 9.67866 18.4528 10.7637 17.6321 10.7637C16.795 10.7637 15.5313 9.85662 14.1692 9.88328C12.4165 9.90915 10.7768 10.8805 9.87746 12.3888C8.02152 15.4643 9.40569 19.9838 11.1838 22.4697C12.0733 23.6872 13.1126 25.0466 14.4731 24.9988C15.804 24.9462 16.3012 24.1866 17.9073 24.1866C19.4987 24.1866 19.9655 24.9988 21.353 24.9682C22.7814 24.9462 23.6807 23.7452 24.539 22.5168C25.5669 21.1213 25.9797 19.747 25.9961 19.6765C25.9625 19.6655 23.222 18.6644 23.195 15.636Z" fill="black"/>
<path d="M20.5741 8.20561C21.2899 7.34874 21.7797 6.18299 21.6437 5C20.6077 5.0439 19.3119 5.68596 18.5658 6.52402C17.9057 7.2625 17.3159 8.47293 17.4683 9.61124C18.6321 9.69434 19.8271 9.04914 20.5741 8.20561Z" fill="black"/>
<path d="M40.7464 8.00745C40.7464 8.94905 40.4567 9.65785 39.8783 10.1339C39.3425 10.5731 38.581 10.7931 37.5948 10.7931C37.1057 10.7931 36.6873 10.7723 36.3369 10.7307V5.58585C36.7939 5.51385 37.2862 5.47705 37.8179 5.47705C38.7574 5.47705 39.4655 5.67625 39.9431 6.07465C40.478 6.52505 40.7464 7.16905 40.7464 8.00745ZM39.8397 8.03065C39.8397 7.42025 39.6739 6.95225 39.3425 6.62585C39.011 6.30025 38.5269 6.13705 37.8893 6.13705C37.6186 6.13705 37.388 6.15465 37.1968 6.19145V10.1027C37.3027 10.1187 37.4963 10.1259 37.7777 10.1259C38.4358 10.1259 38.9437 9.94745 39.3014 9.59065C39.6592 9.23385 39.8397 8.71385 39.8397 8.03065Z" fill="black"/>
<path d="M45.5539 8.83013C45.5539 9.41013 45.3841 9.88532 45.0444 10.2581C44.6883 10.6413 44.2165 10.8325 43.6274 10.8325C43.0596 10.8325 42.6075 10.6493 42.2702 10.2813C41.9338 9.91413 41.7656 9.45093 41.7656 8.89253C41.7656 8.30853 41.9388 7.82933 42.2866 7.45733C42.6345 7.08533 43.1022 6.89893 43.6914 6.89893C44.2592 6.89893 44.7154 7.08213 45.0608 7.44933C45.389 7.80613 45.5539 8.26693 45.5539 8.83013ZM44.662 8.85733C44.662 8.50933 44.5849 8.21093 44.4315 7.96213C44.251 7.66133 43.9941 7.51093 43.6602 7.51093C43.3148 7.51093 43.0522 7.66133 42.8717 7.96213C42.7174 8.21093 42.6411 8.51413 42.6411 8.87253C42.6411 9.22053 42.7182 9.51892 42.8717 9.76772C43.0579 10.0685 43.3172 10.2189 43.652 10.2189C43.9802 10.2189 44.2378 10.0661 44.4233 9.75973C44.5824 9.50613 44.662 9.20533 44.662 8.85733Z" fill="black"/>
<path d="M51.9996 6.97559L50.7894 10.7468H50.0017L49.5003 9.10919C49.3731 8.70039 49.2698 8.29399 49.1894 7.89079H49.1738C49.0991 8.30519 48.9957 8.71079 48.8628 9.10919L48.3303 10.7468H47.5336L46.3955 6.97559H47.2792L47.7165 8.76839C47.8224 9.19239 47.9094 9.59639 47.9791 9.97879H47.9947C48.0587 9.66359 48.1645 9.26199 48.3139 8.77639L48.8628 6.97639H49.5635L50.0895 8.73799C50.2166 9.16759 50.32 9.58119 50.3996 9.97959H50.4234C50.4817 9.59159 50.5695 9.17799 50.686 8.73799L51.1553 6.97639H51.9996V6.97559Z" fill="black"/>
<path d="M56.4577 10.7469H55.5978V8.58688C55.5978 7.92128 55.3386 7.58848 54.8183 7.58848C54.5632 7.58848 54.3572 7.67968 54.1972 7.86288C54.0389 8.04608 53.9585 8.26208 53.9585 8.50928V10.7461H53.0986V8.05328C53.0986 7.72208 53.0879 7.36288 53.0674 6.97408H53.8231L53.8633 7.56369H53.8871C53.9872 7.38048 54.1365 7.22928 54.3326 7.10848C54.5656 6.96768 54.8266 6.89648 55.1121 6.89648C55.4731 6.89648 55.7734 7.01008 56.0122 7.23808C56.3092 7.51728 56.4577 7.93409 56.4577 8.48769V10.7469Z" fill="black"/>
<path d="M58.8288 10.7467H57.9697V5.24512H58.8288V10.7467Z" fill="black"/>
<path d="M63.8913 8.83013C63.8913 9.41013 63.7215 9.88532 63.3818 10.2581C63.0257 10.6413 62.5531 10.8325 61.9648 10.8325C61.3962 10.8325 60.9441 10.6493 60.6076 10.2813C60.2712 9.91413 60.103 9.45093 60.103 8.89253C60.103 8.30853 60.2762 7.82933 60.6241 7.45733C60.972 7.08533 61.4396 6.89893 62.028 6.89893C62.5966 6.89893 63.0519 7.08213 63.3982 7.44933C63.7264 7.80613 63.8913 8.26693 63.8913 8.83013ZM62.9986 8.85733C62.9986 8.50933 62.9215 8.21093 62.7681 7.96213C62.5884 7.66133 62.3307 7.51093 61.9976 7.51093C61.6513 7.51093 61.3888 7.66133 61.2091 7.96213C61.0548 8.21093 60.9785 8.51413 60.9785 8.87253C60.9785 9.22053 61.0556 9.51892 61.2091 9.76772C61.3953 10.0685 61.6546 10.2189 61.9894 10.2189C62.3176 10.2189 62.5744 10.0661 62.7598 9.75973C62.9198 9.50613 62.9986 9.20533 62.9986 8.85733Z" fill="black"/>
<path d="M68.0528 10.7469H67.2807L67.2167 10.3125H67.1929C66.9287 10.6589 66.5521 10.8325 66.0631 10.8325C65.698 10.8325 65.4026 10.7181 65.1802 10.4909C64.9784 10.2845 64.8774 10.0277 64.8774 9.72293C64.8774 9.26213 65.0744 8.91093 65.4707 8.66773C65.8662 8.42453 66.4225 8.30533 67.1388 8.31093V8.24053C67.1388 7.74373 66.8713 7.49573 66.3355 7.49573C65.954 7.49573 65.6175 7.58933 65.3271 7.77493L65.1523 7.22453C65.5117 7.00773 65.9556 6.89893 66.4791 6.89893C67.49 6.89893 67.997 7.41893 67.997 8.45893V9.84773C67.997 10.2245 68.0159 10.5245 68.0528 10.7469ZM67.1601 9.45093V8.86933C66.2116 8.85333 65.7373 9.10693 65.7373 9.62933C65.7373 9.82613 65.7915 9.97333 65.9023 10.0717C66.013 10.1701 66.1542 10.2189 66.3224 10.2189C66.5111 10.2189 66.6875 10.1605 66.8483 10.0445C67.01 9.92773 67.1092 9.77973 67.1462 9.59812C67.1552 9.55733 67.1601 9.50773 67.1601 9.45093Z" fill="black"/>
<path d="M72.9394 10.7467H72.1763L72.1361 10.1411H72.1123C71.8686 10.6019 71.4534 10.8323 70.87 10.8323C70.404 10.8323 70.0159 10.6539 69.7082 10.2971C69.4005 9.94032 69.2471 9.47712 69.2471 8.90832C69.2471 8.29792 69.4136 7.80352 69.7484 7.42592C70.0725 7.07392 70.4696 6.89792 70.9422 6.89792C71.4616 6.89792 71.8251 7.06832 72.0319 7.40992H72.0483V5.24512H72.909V9.73072C72.909 10.0979 72.9189 10.4363 72.9394 10.7467ZM72.0483 9.15632V8.52752C72.0483 8.41872 72.0401 8.33072 72.0245 8.26352C71.9761 8.06192 71.8719 7.89232 71.7135 7.75552C71.5535 7.61872 71.3607 7.54992 71.1383 7.54992C70.8175 7.54992 70.5664 7.67392 70.3818 7.92272C70.1989 8.17152 70.1061 8.48912 70.1061 8.87712C70.1061 9.24992 70.1939 9.55232 70.3703 9.78512C70.5566 10.0331 70.8077 10.1571 71.1219 10.1571C71.4042 10.1571 71.6298 10.0539 71.8013 9.84672C71.9671 9.65552 72.0483 9.42512 72.0483 9.15632Z" fill="black"/>
<path d="M80.2932 8.83013C80.2932 9.41013 80.1233 9.88532 79.7836 10.2581C79.4275 10.6413 78.9566 10.8325 78.3666 10.8325C77.7997 10.8325 77.3476 10.6493 77.0095 10.2813C76.6731 9.91413 76.5049 9.45093 76.5049 8.89253C76.5049 8.30853 76.678 7.82933 77.0259 7.45733C77.3738 7.08533 77.8415 6.89893 78.4314 6.89893C78.9984 6.89893 79.4554 7.08213 79.8001 7.44933C80.1283 7.80613 80.2932 8.26693 80.2932 8.83013ZM79.4021 8.85733C79.4021 8.50933 79.325 8.21093 79.1715 7.96213C78.9902 7.66133 78.7342 7.51093 78.3994 7.51093C78.0548 7.51093 77.7923 7.66133 77.6109 7.96213C77.4567 8.21093 77.3804 8.51413 77.3804 8.87253C77.3804 9.22053 77.4575 9.51892 77.6109 9.76772C77.7972 10.0685 78.0565 10.2189 78.3912 10.2189C78.7194 10.2189 78.9779 10.0661 79.1633 9.75973C79.3217 9.50613 79.4021 9.20533 79.4021 8.85733Z" fill="black"/>
<path d="M84.9169 10.7469H84.0578V8.58688C84.0578 7.92128 83.7985 7.58848 83.2775 7.58848C83.0223 7.58848 82.8164 7.67968 82.6572 7.86288C82.498 8.04608 82.4184 8.26208 82.4184 8.50928V10.7461H81.5577V8.05328C81.5577 7.72208 81.5479 7.36288 81.5273 6.97408H82.2822L82.3224 7.56369H82.3462C82.4471 7.38048 82.5965 7.22928 82.7918 7.10848C83.0256 6.96768 83.2857 6.89648 83.5721 6.89648C83.9323 6.89648 84.2326 7.01008 84.4713 7.23808C84.7692 7.51728 84.9169 7.93409 84.9169 8.48769V10.7469Z" fill="black"/>
<path d="M38.6172 17.5469V26H36.5469V17.5469H38.6172ZM36.4062 15.3359C36.4062 15.0286 36.5104 14.7734 36.7188 14.5703C36.9323 14.3672 37.2188 14.2656 37.5781 14.2656C37.9375 14.2656 38.2214 14.3672 38.4297 14.5703C38.6432 14.7734 38.75 15.0286 38.75 15.3359C38.75 15.638 38.6432 15.8906 38.4297 16.0938C38.2214 16.2969 37.9375 16.3984 37.5781 16.3984C37.2188 16.3984 36.9323 16.2969 36.7188 16.0938C36.5104 15.8906 36.4062 15.638 36.4062 15.3359ZM49.9531 20.0234V20.6094C49.9531 21.4688 49.8385 22.2422 49.6094 22.9297C49.3802 23.612 49.0547 24.1927 48.6328 24.6719C48.2109 25.151 47.7083 25.5182 47.125 25.7734C46.5417 26.0286 45.8932 26.1562 45.1797 26.1562C44.4766 26.1562 43.8307 26.0286 43.2422 25.7734C42.6589 25.5182 42.1536 25.151 41.7266 24.6719C41.2995 24.1927 40.9688 23.612 40.7344 22.9297C40.5 22.2422 40.3828 21.4688 40.3828 20.6094V20.0234C40.3828 19.1589 40.5 18.3854 40.7344 17.7031C40.9688 17.0208 41.2969 16.4401 41.7188 15.9609C42.1406 15.4766 42.6432 15.1068 43.2266 14.8516C43.8151 14.5964 44.4609 14.4688 45.1641 14.4688C45.8776 14.4688 46.526 14.5964 47.1094 14.8516C47.6927 15.1068 48.1953 15.4766 48.6172 15.9609C49.0443 16.4401 49.3724 17.0208 49.6016 17.7031C49.8359 18.3854 49.9531 19.1589 49.9531 20.0234ZM47.7812 20.6094V20.0078C47.7812 19.388 47.724 18.8438 47.6094 18.375C47.4948 17.901 47.3255 17.5026 47.1016 17.1797C46.8776 16.8568 46.6016 16.6146 46.2734 16.4531C45.9453 16.2865 45.5755 16.2031 45.1641 16.2031C44.7474 16.2031 44.3776 16.2865 44.0547 16.4531C43.737 16.6146 43.4661 16.8568 43.2422 17.1797C43.0182 17.5026 42.8464 17.901 42.7266 18.375C42.612 18.8438 42.5547 19.388 42.5547 20.0078V20.6094C42.5547 21.224 42.612 21.7682 42.7266 22.2422C42.8464 22.7161 43.0182 23.1172 43.2422 23.4453C43.4714 23.7682 43.7474 24.013 44.0703 24.1797C44.3932 24.3464 44.763 24.4297 45.1797 24.4297C45.5964 24.4297 45.9661 24.3464 46.2891 24.1797C46.612 24.013 46.8828 23.7682 47.1016 23.4453C47.3255 23.1172 47.4948 22.7161 47.6094 22.2422C47.724 21.7682 47.7812 21.224 47.7812 20.6094ZM57.7266 23.0469C57.7266 22.8281 57.6927 22.6328 57.625 22.4609C57.5625 22.2839 57.4453 22.125 57.2734 21.9844C57.1068 21.8385 56.8698 21.6979 56.5625 21.5625C56.2604 21.4219 55.8698 21.276 55.3906 21.125C54.8594 20.9583 54.3646 20.7708 53.9062 20.5625C53.4479 20.3542 53.0443 20.112 52.6953 19.8359C52.3516 19.5599 52.0833 19.2422 51.8906 18.8828C51.6979 18.5182 51.6016 18.0964 51.6016 17.6172C51.6016 17.1484 51.7005 16.7214 51.8984 16.3359C52.1016 15.9505 52.388 15.6198 52.7578 15.3438C53.1276 15.0625 53.5625 14.8464 54.0625 14.6953C54.5677 14.5443 55.125 14.4688 55.7344 14.4688C56.5781 14.4688 57.3073 14.6224 57.9219 14.9297C58.5417 15.237 59.0208 15.6536 59.3594 16.1797C59.6979 16.7057 59.8672 17.2969 59.8672 17.9531H57.7266C57.7266 17.599 57.651 17.2865 57.5 17.0156C57.3542 16.7448 57.1302 16.5312 56.8281 16.375C56.5312 16.2188 56.1562 16.1406 55.7031 16.1406C55.2656 16.1406 54.901 16.2057 54.6094 16.3359C54.3229 16.4661 54.1068 16.6432 53.9609 16.8672C53.8203 17.0911 53.75 17.3411 53.75 17.6172C53.75 17.8255 53.7995 18.013 53.8984 18.1797C53.9974 18.3411 54.1458 18.4948 54.3438 18.6406C54.5417 18.7812 54.7865 18.9141 55.0781 19.0391C55.375 19.1589 55.7188 19.2786 56.1094 19.3984C56.7344 19.5859 57.2812 19.7943 57.75 20.0234C58.224 20.2526 58.6172 20.513 58.9297 20.8047C59.2474 21.0964 59.4844 21.4245 59.6406 21.7891C59.8021 22.1536 59.8828 22.5677 59.8828 23.0312C59.8828 23.5208 59.7865 23.9583 59.5938 24.3438C59.401 24.7292 59.125 25.0573 58.7656 25.3281C58.4062 25.599 57.974 25.8047 57.4688 25.9453C56.9688 26.0859 56.4089 26.1562 55.7891 26.1562C55.237 26.1562 54.6901 26.0833 54.1484 25.9375C53.612 25.7865 53.125 25.5625 52.6875 25.2656C52.25 24.9635 51.901 24.5833 51.6406 24.125C51.3802 23.6615 51.25 23.1198 51.25 22.5H53.4062C53.4062 22.8594 53.4635 23.1667 53.5781 23.4219C53.6979 23.6719 53.8646 23.8776 54.0781 24.0391C54.2969 24.1953 54.5521 24.3099 54.8438 24.3828C55.1354 24.4557 55.4505 24.4922 55.7891 24.4922C56.2266 24.4922 56.5859 24.4323 56.8672 24.3125C57.1536 24.1875 57.3672 24.0156 57.5078 23.7969C57.6536 23.5781 57.7266 23.3281 57.7266 23.0469Z" fill="black"/>
</svg>
