<svg width="98" height="32" viewBox="0 0 98 32" fill="none" xmlns="http://www.w3.org/2000/svg">
<path d="M4.09259 31.6904H93.9074C95.6754 31.6904 97.1868 30.0637 97.1868 28V4C97.1868 1.93629 95.6754 0.309602 93.9074 0.309602H4.09259C2.3246 0.309602 0.813248 1.93629 0.813248 4V28C0.813248 30.0637 2.3246 31.6904 4.09259 31.6904Z" fill="white" stroke="#A6A6A6" stroke-width="0.5"/>
<path d="M9.06215 6.03085C8.82113 6.27685 8.68164 6.65985 8.68164 7.15585V24.8479C8.68164 25.3439 8.82113 25.7269 9.06215 25.9729L9.12164 26.0269L19.2898 16.1169V15.8829L9.12164 5.97285L9.06215 6.03085Z" fill="url(#paint0_linear_12_10203)"/>
<path d="M22.6757 19.4219L19.29 16.1169V15.8829L22.6798 12.5779L22.7557 12.6209L26.77 14.8479C27.9157 15.4799 27.9157 16.5199 26.77 17.1559L22.7557 19.3789L22.6757 19.4219Z" fill="url(#paint1_linear_12_10203)"/>
<path d="M22.7553 19.379L19.2897 16L9.06201 25.973C9.44252 26.363 10.063 26.41 10.7687 26.02L22.7553 19.379Z" fill="url(#paint2_linear_12_10203)"/>
<path d="M22.7553 12.621L10.7687 5.98C10.063 5.594 9.44252 5.641 9.06201 6.031L19.2897 16L22.7553 12.621Z" fill="url(#paint3_linear_12_10203)"/>
<path d="M39.4764 8.1947C39.4764 8.8627 39.2713 9.3977 38.8672 9.7967C38.4026 10.2697 37.7974 10.5077 37.0559 10.5077C36.3472 10.5077 35.742 10.2657 35.2456 9.7887C34.7482 9.3047 34.5 8.7107 34.5 7.9997C34.5 7.2887 34.7482 6.6947 35.2456 6.2147C35.742 5.7337 36.3472 5.4917 37.0559 5.4917C37.4087 5.4917 37.7451 5.5627 38.0662 5.6947C38.3862 5.8277 38.6467 6.0077 38.8354 6.2297L38.4067 6.6517C38.0774 6.2727 37.6292 6.0857 37.0559 6.0857C36.539 6.0857 36.0908 6.2617 35.7103 6.6167C35.3338 6.9727 35.1451 7.4337 35.1451 7.9997C35.1451 8.5657 35.3338 9.0307 35.7103 9.3867C36.0908 9.7377 36.539 9.9177 37.0559 9.9177C37.6046 9.9177 38.0662 9.7377 38.4303 9.3827C38.6703 9.1477 38.8067 8.8237 38.8426 8.4097H37.0559V7.8317H39.4395C39.4682 7.9567 39.4764 8.0777 39.4764 8.1947Z" fill="black" stroke="black" stroke-width="0.16" stroke-miterlimit="10"/>
<path d="M43.2581 6.19105H41.0191V7.71105H43.0376V8.28905H41.0191V9.80905H43.2581V10.398H40.3853V5.60205H43.2581V6.19105Z" fill="black" stroke="black" stroke-width="0.16" stroke-miterlimit="10"/>
<path d="M45.9266 10.398H45.2928V6.19105H43.9194V5.60205H47.301V6.19105H45.9266V10.398Z" fill="black" stroke="black" stroke-width="0.16" stroke-miterlimit="10"/>
<path d="M49.748 10.398V5.60205H50.3809V10.398H49.748Z" fill="black" stroke="black" stroke-width="0.16" stroke-miterlimit="10"/>
<path d="M53.1864 10.398H52.5577V6.19105H51.1792V5.60205H54.5648V6.19105H53.1864V10.398Z" fill="black" stroke="black" stroke-width="0.16" stroke-miterlimit="10"/>
<path d="M60.9667 9.7807C60.4816 10.2657 59.8806 10.5077 59.1637 10.5077C58.4426 10.5077 57.8416 10.2657 57.3565 9.7807C56.8724 9.2967 56.6313 8.7027 56.6313 7.9997C56.6313 7.2967 56.8724 6.7027 57.3565 6.2187C57.8416 5.7337 58.4426 5.4917 59.1637 5.4917C59.8765 5.4917 60.4775 5.7337 60.9626 6.2227C61.4508 6.7107 61.6919 7.3007 61.6919 7.9997C61.6919 8.7027 61.4508 9.2967 60.9667 9.7807ZM57.8252 9.3787C58.1903 9.7377 58.6344 9.9177 59.1637 9.9177C59.6888 9.9177 60.137 9.7377 60.498 9.3787C60.8621 9.0197 61.0467 8.5587 61.0467 7.9997C61.0467 7.4407 60.8621 6.9797 60.498 6.6207C60.137 6.2617 59.6888 6.0817 59.1637 6.0817C58.6344 6.0817 58.1903 6.2617 57.8252 6.6207C57.4611 6.9797 57.2765 7.4407 57.2765 7.9997C57.2765 8.5587 57.4611 9.0197 57.8252 9.3787Z" fill="black" stroke="black" stroke-width="0.16" stroke-miterlimit="10"/>
<path d="M62.5811 10.398V5.60205H63.3503L65.7421 9.33205H65.7698L65.7421 8.41005V5.60205H66.3749V10.398H65.7144L63.2098 6.48405H63.1821L63.2098 7.41005V10.398H62.5811Z" fill="black" stroke="black" stroke-width="0.16" stroke-miterlimit="10"/>
<path d="M40.1094 15.3516L36.8672 25H34.5938L38.8438 13.625H40.2969L40.1094 15.3516ZM42.8203 25L39.5625 15.3516L39.3672 13.625H40.8281L45.1016 25H42.8203ZM42.6719 20.7734V22.4688H36.5703V20.7734H42.6719ZM47.9375 18.3516V25H45.875V16.5469H47.8125L47.9375 18.3516ZM47.6094 20.4688H47C47.0052 19.8542 47.0885 19.2969 47.25 18.7969C47.4115 18.2969 47.638 17.8672 47.9297 17.5078C48.2266 17.1484 48.5781 16.8724 48.9844 16.6797C49.3906 16.487 49.8438 16.3906 50.3438 16.3906C50.75 16.3906 51.1172 16.4479 51.4453 16.5625C51.7734 16.6771 52.0547 16.8594 52.2891 17.1094C52.5286 17.3594 52.7109 17.6875 52.8359 18.0938C52.9661 18.4948 53.0312 18.9896 53.0312 19.5781V25H50.9531V19.5625C50.9531 19.1771 50.8958 18.8724 50.7812 18.6484C50.6719 18.4245 50.5104 18.2656 50.2969 18.1719C50.0885 18.0781 49.8307 18.0312 49.5234 18.0312C49.2057 18.0312 48.9271 18.0964 48.6875 18.2266C48.4531 18.3516 48.2552 18.526 48.0938 18.75C47.9375 18.974 47.8177 19.2318 47.7344 19.5234C47.651 19.8151 47.6094 20.1302 47.6094 20.4688ZM59.9219 23.2031V13H62V25H60.125L59.9219 23.2031ZM54.4922 20.875V20.7109C54.4922 20.0651 54.5651 19.4792 54.7109 18.9531C54.862 18.4219 55.0807 17.9661 55.3672 17.5859C55.6536 17.2057 56 16.9115 56.4062 16.7031C56.8177 16.4948 57.2839 16.3906 57.8047 16.3906C58.3099 16.3906 58.75 16.4922 59.125 16.6953C59.5052 16.8984 59.8281 17.1875 60.0938 17.5625C60.3646 17.9375 60.5807 18.3828 60.7422 18.8984C60.9036 19.4089 61.0208 19.9714 61.0938 20.5859V21.0312C61.0208 21.6302 60.9036 22.1797 60.7422 22.6797C60.5807 23.1797 60.3646 23.6172 60.0938 23.9922C59.8281 24.362 59.5052 24.6484 59.125 24.8516C58.7448 25.0547 58.2995 25.1562 57.7891 25.1562C57.2734 25.1562 56.8099 25.0495 56.3984 24.8359C55.9922 24.6224 55.6458 24.3229 55.3594 23.9375C55.0781 23.5521 54.862 23.099 54.7109 22.5781C54.5651 22.0573 54.4922 21.4896 54.4922 20.875ZM56.5625 20.7109V20.875C56.5625 21.2396 56.5938 21.5807 56.6562 21.8984C56.7188 22.2161 56.8203 22.4974 56.9609 22.7422C57.1016 22.9818 57.2812 23.1693 57.5 23.3047C57.724 23.4401 57.9948 23.5078 58.3125 23.5078C58.7188 23.5078 59.0521 23.4193 59.3125 23.2422C59.5781 23.0599 59.7839 22.8125 59.9297 22.5C60.0755 22.1823 60.1693 21.8255 60.2109 21.4297V20.2031C60.1901 19.8906 60.1354 19.6016 60.0469 19.3359C59.9635 19.0703 59.8438 18.8411 59.6875 18.6484C59.5365 18.4557 59.349 18.3047 59.125 18.1953C58.901 18.0859 58.6354 18.0312 58.3281 18.0312C58.0104 18.0312 57.7396 18.1016 57.5156 18.2422C57.2917 18.3776 57.1094 18.5677 56.9688 18.8125C56.8281 19.0573 56.724 19.3411 56.6562 19.6641C56.5938 19.987 56.5625 20.3359 56.5625 20.7109ZM65.9297 18.2734V25H63.8672V16.5469H65.8203L65.9297 18.2734ZM68.5 16.4922L68.4688 18.4141C68.3542 18.3932 68.224 18.3776 68.0781 18.3672C67.9375 18.3568 67.8047 18.3516 67.6797 18.3516C67.362 18.3516 67.0833 18.3958 66.8438 18.4844C66.6042 18.5677 66.4036 18.6901 66.2422 18.8516C66.0859 19.013 65.9661 19.2109 65.8828 19.4453C65.7995 19.6745 65.7526 19.9349 65.7422 20.2266L65.2969 20.1719C65.2969 19.6354 65.3516 19.138 65.4609 18.6797C65.5703 18.2214 65.7292 17.8203 65.9375 17.4766C66.1458 17.1328 66.4062 16.8672 66.7188 16.6797C67.0365 16.487 67.401 16.3906 67.8125 16.3906C67.9271 16.3906 68.0495 16.401 68.1797 16.4219C68.3151 16.4375 68.4219 16.4609 68.5 16.4922ZM69.0469 20.8594V20.6953C69.0469 20.0755 69.1354 19.5052 69.3125 18.9844C69.4896 18.4583 69.7474 18.0026 70.0859 17.6172C70.4245 17.2318 70.8385 16.9323 71.3281 16.7188C71.8177 16.5 72.375 16.3906 73 16.3906C73.6354 16.3906 74.1979 16.5 74.6875 16.7188C75.1823 16.9323 75.599 17.2318 75.9375 17.6172C76.276 18.0026 76.5339 18.4583 76.7109 18.9844C76.888 19.5052 76.9766 20.0755 76.9766 20.6953V20.8594C76.9766 21.474 76.888 22.0443 76.7109 22.5703C76.5339 23.0911 76.276 23.5469 75.9375 23.9375C75.599 24.3229 75.1849 24.6224 74.6953 24.8359C74.2057 25.0495 73.6458 25.1562 73.0156 25.1562C72.3906 25.1562 71.8307 25.0495 71.3359 24.8359C70.8411 24.6224 70.4245 24.3229 70.0859 23.9375C69.7474 23.5469 69.4896 23.0911 69.3125 22.5703C69.1354 22.0443 69.0469 21.474 69.0469 20.8594ZM71.1094 20.6953V20.8594C71.1094 21.2292 71.1458 21.5755 71.2188 21.8984C71.2917 22.2214 71.4036 22.5052 71.5547 22.75C71.7057 22.9948 71.901 23.1875 72.1406 23.3281C72.3854 23.4635 72.6771 23.5312 73.0156 23.5312C73.349 23.5312 73.6354 23.4635 73.875 23.3281C74.1146 23.1875 74.3099 22.9948 74.4609 22.75C74.6172 22.5052 74.7318 22.2214 74.8047 21.8984C74.8776 21.5755 74.9141 21.2292 74.9141 20.8594V20.6953C74.9141 20.3307 74.8776 19.9896 74.8047 19.6719C74.7318 19.349 74.6172 19.0651 74.4609 18.8203C74.3099 18.5703 74.112 18.375 73.8672 18.2344C73.6276 18.0885 73.3385 18.0156 73 18.0156C72.6667 18.0156 72.3802 18.0885 72.1406 18.2344C71.901 18.375 71.7057 18.5703 71.5547 18.8203C71.4036 19.0651 71.2917 19.349 71.2188 19.6719C71.1458 19.9896 71.1094 20.3307 71.1094 20.6953ZM80.6641 16.5469V25H78.5938V16.5469H80.6641ZM78.4531 14.3359C78.4531 14.0286 78.5573 13.7734 78.7656 13.5703C78.9792 13.3672 79.2656 13.2656 79.625 13.2656C79.9844 13.2656 80.2682 13.3672 80.4766 13.5703C80.6901 13.7734 80.7969 14.0286 80.7969 14.3359C80.7969 14.638 80.6901 14.8906 80.4766 15.0938C80.2682 15.2969 79.9844 15.3984 79.625 15.3984C79.2656 15.3984 78.9792 15.2969 78.7656 15.0938C78.5573 14.8906 78.4531 14.638 78.4531 14.3359ZM87.7031 23.2031V13H89.7812V25H87.9062L87.7031 23.2031ZM82.2734 20.875V20.7109C82.2734 20.0651 82.3464 19.4792 82.4922 18.9531C82.6432 18.4219 82.862 17.9661 83.1484 17.5859C83.4349 17.2057 83.7812 16.9115 84.1875 16.7031C84.599 16.4948 85.0651 16.3906 85.5859 16.3906C86.0911 16.3906 86.5312 16.4922 86.9062 16.6953C87.2865 16.8984 87.6094 17.1875 87.875 17.5625C88.1458 17.9375 88.362 18.3828 88.5234 18.8984C88.6849 19.4089 88.8021 19.9714 88.875 20.5859V21.0312C88.8021 21.6302 88.6849 22.1797 88.5234 22.6797C88.362 23.1797 88.1458 23.6172 87.875 23.9922C87.6094 24.362 87.2865 24.6484 86.9062 24.8516C86.526 25.0547 86.0807 25.1562 85.5703 25.1562C85.0547 25.1562 84.5911 25.0495 84.1797 24.8359C83.7734 24.6224 83.4271 24.3229 83.1406 23.9375C82.8594 23.5521 82.6432 23.099 82.4922 22.5781C82.3464 22.0573 82.2734 21.4896 82.2734 20.875ZM84.3438 20.7109V20.875C84.3438 21.2396 84.375 21.5807 84.4375 21.8984C84.5 22.2161 84.6016 22.4974 84.7422 22.7422C84.8828 22.9818 85.0625 23.1693 85.2812 23.3047C85.5052 23.4401 85.776 23.5078 86.0938 23.5078C86.5 23.5078 86.8333 23.4193 87.0938 23.2422C87.3594 23.0599 87.5651 22.8125 87.7109 22.5C87.8568 22.1823 87.9505 21.8255 87.9922 21.4297V20.2031C87.9714 19.8906 87.9167 19.6016 87.8281 19.3359C87.7448 19.0703 87.625 18.8411 87.4688 18.6484C87.3177 18.4557 87.1302 18.3047 86.9062 18.1953C86.6823 18.0859 86.4167 18.0312 86.1094 18.0312C85.7917 18.0312 85.5208 18.1016 85.2969 18.2422C85.0729 18.3776 84.8906 18.5677 84.75 18.8125C84.6094 19.0573 84.5052 19.3411 84.4375 19.6641C84.375 19.987 84.3438 20.3359 84.3438 20.7109Z" fill="black"/>
<defs>
<linearGradient id="paint0_linear_12_10203" x1="18.387" y1="25.0321" x2="4.96541" y2="11.2663" gradientUnits="userSpaceOnUse">
<stop stop-color="#00A0FF"/>
<stop offset="0.0066" stop-color="#00A1FF"/>
<stop offset="0.2601" stop-color="#00BEFF"/>
<stop offset="0.5122" stop-color="#00D2FF"/>
<stop offset="0.7604" stop-color="#00DFFF"/>
<stop offset="1" stop-color="#00E3FF"/>
</linearGradient>
<linearGradient id="paint1_linear_12_10203" x1="28.2619" y1="15.9988" x2="8.40799" y2="15.9988" gradientUnits="userSpaceOnUse">
<stop stop-color="#FFE000"/>
<stop offset="0.4087" stop-color="#FFBD00"/>
<stop offset="0.7754" stop-color="#FFA500"/>
<stop offset="1" stop-color="#FF9C00"/>
</linearGradient>
<linearGradient id="paint2_linear_12_10203" x1="20.8708" y1="14.1631" x2="2.67003" y2="-4.50439" gradientUnits="userSpaceOnUse">
<stop stop-color="#FF3A44"/>
<stop offset="1" stop-color="#C31162"/>
</linearGradient>
<linearGradient id="paint3_linear_12_10203" x1="6.48749" y1="31.859" x2="14.615" y2="23.5232" gradientUnits="userSpaceOnUse">
<stop stop-color="#32A071"/>
<stop offset="0.0685" stop-color="#2DA771"/>
<stop offset="0.4762" stop-color="#15CF74"/>
<stop offset="0.8009" stop-color="#06E775"/>
<stop offset="1" stop-color="#00F076"/>
</linearGradient>
</defs>
</svg>
